<?xml version="1.0" encoding="UTF-8" standalone="no"?>
<svg width="44px" height="50px" viewBox="0 0 44 50" version="1.1" xmlns="http://www.w3.org/2000/svg" xmlns:xlink="http://www.w3.org/1999/xlink">
    <!-- Generator: Sketch 43.2 (39069) - http://www.bohemiancoding.com/sketch -->
    <title>Accident Insurance</title>
    <desc>Created with Sketch.</desc>
    <defs></defs>
    <g id="accident-insurance" stroke="none" stroke-width="1" fill="none" fill-rule="evenodd">
        <g id="accident-insurance7" transform="translate(-90.000000, -550.000000)" fill="currentColor">
            <g id="accident-insurance" transform="translate(90.000000, 550.000000)">
                <path d="M29.9079639,40.562 C31.8749639,40.562 33.4739639,42.211 33.4739639,44.24 C33.4739639,46.267 31.8739639,47.916 29.9079639,47.917 L22.4919639,47.917 L27.0949639,40.562 L29.9079639,40.562 Z M5.55096385,47.917 C4.37096385,47.917 3.27396385,47.314 2.61796385,46.302 C1.96196385,45.291 1.83796385,44.015 2.28696385,42.89 L7.79596385,29.113 C8.63696385,27.007 10.0779639,25.267 11.9629639,24.079 L16.6269639,21.136 C16.9189639,20.953 17.0999639,20.628 17.1089639,20.277 C17.1189639,19.924 16.9549639,19.591 16.6739639,19.391 C14.1789639,17.614 12.6889639,14.692 12.6889639,11.576 C12.6889639,6.342 16.8189639,2.084 21.8939639,2.084 C26.9699639,2.084 31.0979639,6.342 31.0979639,11.576 C31.0979639,13.408 30.5929639,15.184 29.6359639,16.714 L16.0189639,38.479 L8.60296385,38.479 C8.04596385,38.479 7.59296385,38.945 7.59296385,39.52 C7.59296385,40.095 8.04596385,40.562 8.60296385,40.562 L14.7159639,40.562 L10.1139639,47.917 L5.55096385,47.917 Z M43.6109639,42.705 L36.4479639,24.786 C36.3039639,24.428 35.9799639,24.181 35.6059639,24.146 C35.2279639,24.113 34.8689639,24.292 34.6659639,24.619 L20.0879639,47.917 L12.5179639,47.917 L31.3329639,17.844 C32.5019639,15.977 33.1189639,13.81 33.1189639,11.576 C33.1189639,5.193 28.0839639,0 21.8939639,0 C15.7049639,0 10.6699639,5.193 10.6699639,11.576 C10.6699639,14.853 12.0189639,17.955 14.3429639,20.137 L10.9079639,22.302 C8.65596385,23.721 6.93396385,25.802 5.92896385,28.318 L0.41996385,42.096 C-0.28703615,43.866 -0.09303615,45.872 0.93896385,47.461 C1.97096385,49.051 3.69496385,50 5.55096385,50 L29.9079639,50 C32.9879639,50 35.4949639,47.416 35.4949639,44.24 C35.4949639,41.063 32.9879639,38.479 29.9079639,38.479 L28.3979639,38.479 L35.3159639,27.421 L41.7439639,43.5 C42.1389639,44.488 42.0309639,45.609 41.4539639,46.498 C40.8769639,47.386 39.9139639,47.917 38.8759639,47.917 C38.3179639,47.917 37.8659639,48.383 37.8659639,48.959 C37.8659639,49.535 38.3179639,50 38.8759639,50 C40.5889639,50 42.1799639,49.125 43.1339639,47.657 C44.0859639,46.188 44.2639639,44.337 43.6109639,42.705 L43.6109639,42.705 Z"></path>
            </g>
        </g>
    </g>
</svg>