<?xml version="1.0" encoding="UTF-8" standalone="no"?>
<svg width="48px" height="54px" viewBox="0 0 48 54" version="1.1" xmlns="http://www.w3.org/2000/svg" xmlns:xlink="http://www.w3.org/1999/xlink">
    <!-- Generator: Sketch 43.2 (39069) - http://www.bohemiancoding.com/sketch -->
    <title>Accidental Death &amp; Dismemberment</title>
    <desc>Created with Sketch.</desc>
    <defs></defs>
    <g id="accidental-death-dismemberment" stroke="none" stroke-width="1" fill="none" fill-rule="evenodd">
        <g id="accidental-death-dismemberment" transform="translate(-868.000000, -696.000000)" fill="currentColor">
            <g id="accidental-death-dismemberment" transform="translate(868.000000, 696.000000)">
                <path d="M24,42.0000051 C24.552,42.0000051 25,41.5520051 25,40.9990051 C25,40.4470051 24.552,39.9990051 24,40.0000051 L15.999,40.0000051 C15.447,39.9990051 14.999,40.4470051 14.999,40.9990051 C14.999,41.5520051 15.447,42.0000051 15.999,42.0000051 L24,42.0000051 Z M26.999,52.0000051 L5,52.0000051 C4.445,51.9990051 3.999,52.4450051 3.999,53.0000051 C3.999,53.5520051 4.445,54.0000051 5,54.0000051 L26.999,54.0000051 C27.551,54.0000051 27.999,53.5520051 27.999,53.0000051 C27.999,52.4450051 27.551,51.9990051 26.999,52.0000051 L26.999,52.0000051 Z M34.134,45.4040051 C33.935,45.5970051 33.693,45.7540051 33.408,45.8610051 C33.157,45.9540051 32.901,45.9970051 32.653,45.9970051 C31.802,45.9970051 31.014,45.4960051 30.707,44.7090051 L27.31,36.1070051 L27.077,35.7610051 L18.147,27.0660051 C18.126,27.0390051 18.098,27.0050051 18.06,26.9650051 C17.865,26.7650051 17.715,26.5780051 17.599,26.3820051 L13.132,18.2450051 C12.934,17.8820051 12.531,17.6810051 12.121,17.7360051 C11.711,17.7910051 11.377,18.0930051 11.282,18.4970051 L9.843,24.5810051 C9.798,24.7650051 9.809,24.9530051 9.87,25.1350051 L12.593,33.0850051 C12.596,33.0940051 12.6,33.1030051 12.603,33.1120051 C12.63,33.2040051 12.644,33.2980051 12.644,33.3900051 C12.644,33.6470051 12.536,33.9030051 12.341,34.0940051 C12.233,34.1990051 12.099,34.2860051 11.927,34.3410051 C11.814,34.3740051 11.701,34.3920051 11.591,34.3940051 C11.134,34.3920051 10.722,34.1100051 10.585,33.7000051 L7.68,25.2170051 C7.642,25.1070051 7.627,25.0100051 7.627,24.9060051 C7.627,24.8390051 7.636,24.7710051 7.652,24.6970051 L9.834,15.4970051 C9.887,15.2700051 10.024,15.0620051 10.215,14.9250051 L16.03,10.6780051 C16.216,10.5400051 16.434,10.4710051 16.668,10.4690051 C16.719,10.4690051 16.78,10.4750051 16.851,10.4850051 L24.523,11.7320051 C24.837,11.7830051 25.155,11.6840051 25.382,11.4620051 L30.446,6.53200511 L30.449,6.52800511 C30.651,6.32900511 30.92,6.22800511 31.201,6.22800511 C31.479,6.22800511 31.751,6.32900511 31.958,6.53200511 C32.157,6.72900511 32.254,6.97900511 32.254,7.22800511 C32.252,7.48100511 32.159,7.72700511 31.956,7.92800511 L26.145,13.5840051 C25.942,13.7780051 25.672,13.8870051 25.391,13.8870051 C25.331,13.8870051 25.268,13.8830051 25.206,13.8720051 L19.021,12.8680051 C18.645,12.8070051 18.265,12.9670051 18.045,13.2770051 C17.824,13.5910051 17.8,14.0010051 17.985,14.3370051 L22.361,22.3210051 C22.568,22.7010051 22.999,22.9040051 23.429,22.8220051 L33.691,20.8240051 C33.827,20.7970051 33.96,20.7820051 34.104,20.7820051 C34.655,20.7820051 35.194,20.9980051 35.586,21.3800051 L41.398,27.0390051 C41.805,27.4330051 41.997,27.9360051 41.999,28.4430051 C41.997,28.9480051 41.805,29.4490051 41.398,29.8470051 C40.988,30.2390051 40.456,30.4400051 39.915,30.4400051 C39.374,30.4400051 38.843,30.2420051 38.438,29.8470051 L33.787,25.3230051 C33.552,25.0950051 33.22,24.9950051 32.898,25.0590051 L25.638,26.4730051 C25.271,26.5450051 24.979,26.8110051 24.87,27.1700051 C24.765,27.5270051 24.864,27.9100051 25.13,28.1720051 L30.502,33.4000051 C30.705,33.5970051 30.865,33.8350051 30.969,34.0980051 L34.601,43.2870051 C34.691,43.5200051 34.733,43.7600051 34.736,43.9950051 C34.736,44.5170051 34.519,45.0280051 34.134,45.4040051 L34.134,45.4040051 Z M9.997,9.99800511 C8.97,9.99600511 7.951,9.60900511 7.17,8.82800511 C6.386,8.04300511 5.998,7.02400511 5.996,5.99700511 C5.998,4.97000511 6.386,3.95100511 7.168,3.17200511 C7.953,2.38700511 8.972,1.99800511 9.999,1.99600511 C11.024,1.99800511 12.039,2.38300511 12.826,3.17000511 L12.826,3.17200511 C13.609,3.95300511 13.996,4.97200511 13.999,5.99900511 C13.996,7.02200511 13.607,8.04300511 12.824,8.83000511 C12.043,9.60900511 11.026,9.99600511 9.997,9.99800511 L9.997,9.99800511 Z M47,46.0000051 L36.166,46.0000051 C36.523,45.3960051 36.733,44.7110051 36.733,43.9950051 C36.735,43.5130051 36.645,43.0240051 36.461,42.5560051 L32.827,33.3590051 C32.62,32.8380051 32.305,32.3620051 31.896,31.9670051 L27.896,28.0710051 L32.768,27.1220051 L37.044,31.2790051 C37.839,32.0560051 38.884,32.4400051 39.915,32.4400051 C40.951,32.4400051 41.993,32.0520051 42.79,31.2820051 C43.593,30.5040051 44.001,29.4710051 43.999,28.4430051 C44.001,27.4130051 43.591,26.3800051 42.794,25.6060051 L36.983,19.9470051 C36.205,19.1940051 35.171,18.7840051 34.104,18.7840051 C33.844,18.7840051 33.571,18.8060051 33.294,18.8650051 L23.763,20.7190051 L20.721,15.1700051 L24.892,15.8460051 C25.062,15.8740051 25.226,15.8870051 25.391,15.8870051 C26.189,15.8870051 26.957,15.5780051 27.536,15.0210051 L33.352,9.35800511 C33.949,8.77700511 34.256,7.99700511 34.254,7.22800511 C34.254,6.45400511 33.945,5.67900511 33.355,5.10200511 C32.755,4.51800511 31.976,4.22700511 31.201,4.22900511 C30.43,4.22700511 29.646,4.51600511 29.048,5.10200511 L29.049,5.10300511 L24.349,9.67800511 L17.172,8.51300511 C17.013,8.48500511 16.846,8.47100511 16.668,8.47100511 C16.184,8.46900511 15.702,8.58300511 15.267,8.80700511 C15.734,7.92700511 15.997,6.96700511 15.996,5.99900511 C15.998,4.46700511 15.411,2.92600511 14.24,1.75600511 L14.239,1.75700511 C13.069,0.583005111 11.527,-0.00199488928 9.999,5.11072265e-06 C8.465,-0.00199488928 6.924,0.588005111 5.756,1.75800511 C4.584,2.92200511 3.998,4.46500511 4,5.99700511 C3.998,7.52900511 4.584,9.07200511 5.756,10.2420051 C6.922,11.4110051 8.465,12.0000051 9.997,11.9980051 L10.006,11.9980051 C10.325,11.9980051 10.644,11.9570051 10.96,11.9060051 L9.041,13.3080051 C8.458,13.7290051 8.052,14.3430051 7.888,15.0340051 L5.71,24.2260051 C5.655,24.4410051 5.625,24.6740051 5.628,24.9060051 C5.625,25.2290051 5.681,25.5580051 5.792,25.8720051 L8.694,34.3490051 C9.133,35.6150051 10.324,36.3940051 11.591,36.3920051 C11.908,36.3940051 12.228,36.3430051 12.538,36.2450051 C13.007,36.0930051 13.413,35.8440051 13.74,35.5220051 C14.31,34.9670051 14.644,34.2010051 14.644,33.3900051 C14.644,33.0700051 14.593,32.7490051 14.487,32.4360051 C14.48,32.4170051 14.473,32.3970051 14.465,32.3790051 L11.855,24.7610051 L12.629,21.4860051 L15.861,27.3710051 C16.085,27.7550051 16.333,28.0530051 16.578,28.3100051 C16.604,28.3450051 16.646,28.3960051 16.706,28.4550051 L25.53,37.0440051 L28.847,45.4420051 C28.924,45.6390051 29.017,45.8240051 29.12,46.0000051 L1,46.0000051 C0.446,46.0000051 0,46.4460051 0,47.0000051 C0,47.5520051 0.446,48.0000051 1,48.0000051 L47,48.0000051 C47.552,48.0000051 48,47.5520051 48,47.0000051 C48,46.4460051 47.552,46.0000051 47,46.0000051 L47,46.0000051 Z" id="Fill-1"></path>
            </g>
        </g>
    </g>
</svg>