<?xml version="1.0" encoding="UTF-8" standalone="no"?>
<svg width="56px" height="52px" viewBox="0 0 56 52" version="1.1" xmlns="http://www.w3.org/2000/svg" xmlns:xlink="http://www.w3.org/1999/xlink">
    <!-- Generator: Sketch 43.2 (39069) - http://www.bohemiancoding.com/sketch -->
    <title>Business HSA</title>
    <desc>Created with Sketch.</desc>
    <defs></defs>
    <g id="business-hsa" stroke="none" stroke-width="1" fill="none" fill-rule="evenodd">
        <g id="business-hsa" transform="translate(-668.000000, -698.000000)" fill="currentColor">
            <g id="business-hsa" transform="translate(668.000000, 698.000000)">
                <path d="M48.0002,24.3801 C47.3702,24.7501 46.7002,25.0601 46.0002,25.3101 C44.7502,25.7501 43.4002,26.0001 42.0002,26.0001 C40.6002,26.0001 39.2502,25.7501 38.0002,25.3101 C37.3002,25.0601 36.6302,24.7501 36.0002,24.3801 C32.4202,22.3101 30.0102,18.4401 30.0002,14.0001 C30.0002,13.3201 30.0602,12.6511 30.1702,12.0001 C31.1202,6.3201 36.0502,2.0101 42.0002,2.0001 C48.6302,2.0101 53.9902,7.3701 54.0002,14.0001 C53.9902,18.4401 51.5802,22.3101 48.0002,24.3801 L48.0002,24.3801 Z M2.0002,50.0001 L10.0002,50.0001 L10.0002,22.0001 L2.0002,22.0001 L2.0002,50.0001 Z M42.0002,0.0001 C34.9502,0.0001 29.1092,5.2201 28.1402,12.0001 L11.0002,12.0001 C10.4392,12.0001 10.0002,12.4491 10.0002,13.0001 L10.0002,20.0001 L1.0002,20.0001 C0.4392,20.0001 0.0002,20.4491 0.0002,21.0001 L0.0002,51.0001 C0.0002,51.5501 0.4392,52.0001 1.0002,52.0001 L11.0002,52.0001 C11.5502,52.0001 12.0002,51.5501 12.0002,51.0001 L12.0002,14.0001 L28.0002,14.0001 C28.0002,19.5801 31.2702,24.4011 36.0002,26.6511 C36.6402,26.9601 37.3102,27.2101 38.0002,27.4201 C39.2702,27.8001 40.6092,28.0001 42.0002,28.0001 C43.3902,28.0001 44.7292,27.8001 46.0002,27.4201 C46.6892,27.2101 47.3592,26.9601 48.0002,26.6511 C52.7292,24.4011 56.0002,19.5801 56.0002,14.0001 C56.0002,6.2701 49.7292,0.0001 42.0002,0.0001 L42.0002,0.0001 Z" id="Fill-1"></path>
                <path d="M47.0002,17.0002 C47.0002,18.1892 46.4792,19.2702 45.6502,20.0002 C44.9502,20.6202 44.0202,21.0002 43.0002,21.0002 L43.0002,23.0002 C43.0002,23.5502 42.5502,24.0002 42.0002,24.0002 C41.4502,24.0002 41.0002,23.5502 41.0002,23.0002 L41.0002,21.0002 L38.0002,21.0002 C37.4502,21.0002 37.0002,20.5502 37.0002,20.0002 C37.0002,19.4392 37.4502,19.0002 38.0002,19.0002 L43.0002,19.0002 C44.1002,19.0002 45.0002,18.1002 45.0002,17.0002 C45.0002,15.8902 44.1002,15.0002 43.0002,15.0002 L41.0002,15.0002 C39.8002,15.0002 38.7292,14.4702 38.0002,13.6402 C37.5902,13.1802 37.2902,12.6202 37.1302,12.0102 C37.0502,11.6892 37.0002,11.3502 37.0002,11.0002 C37.0002,9.9002 37.4502,8.9002 38.1702,8.1702 C38.9002,7.4492 39.9002,7.0002 41.0002,7.0002 L41.0002,5.0002 C41.0002,4.4492 41.4502,4.0002 42.0002,4.0002 C42.5502,4.0002 43.0002,4.4492 43.0002,5.0002 L43.0002,7.0002 L46.0002,7.0002 C46.5502,7.0002 47.0002,7.4492 47.0002,8.0002 C47.0002,8.5502 46.5502,9.0002 46.0002,9.0002 L41.0002,9.0002 C39.9002,9.0002 39.0002,9.8902 39.0002,11.0002 C39.0002,12.1002 39.9002,12.9902 41.0002,13.0002 L43.0002,13.0002 C45.2102,13.0002 47.0002,14.7902 47.0002,17.0002" id="Fill-4"></path>
                <path d="M29.0002,44.0002 L19.0002,44.0002 C18.4392,44.0002 18.0002,44.4492 18.0002,45.0002 L18.0002,51.0002 C18.0002,51.5502 18.4392,52.0002 19.0002,52.0002 C19.5502,52.0002 20.0002,51.5502 20.0002,51.0002 L20.0002,46.0002 L28.0002,46.0002 L28.0002,51.0002 C28.0002,51.5502 28.4392,52.0002 29.0002,52.0002 C29.5502,52.0002 30.0002,51.5502 30.0002,51.0002 L30.0002,45.0002 C30.0002,44.4492 29.5502,44.0002 29.0002,44.0002 M31.0002,38.0002 L17.0002,38.0002 C16.4392,38.0002 16.0002,38.4492 16.0002,39.0002 C16.0002,39.5502 16.4392,40.0002 17.0002,40.0002 L31.0002,40.0002 C31.5502,40.0002 32.0002,39.5502 32.0002,39.0002 C32.0002,38.4492 31.5502,38.0002 31.0002,38.0002 M31.0002,32.0002 L17.0002,32.0002 C16.4392,32.0002 16.0002,32.4492 16.0002,33.0002 C16.0002,33.5502 16.4392,34.0002 17.0002,34.0002 L31.0002,34.0002 C31.5502,34.0002 32.0002,33.5502 32.0002,33.0002 C32.0002,32.4492 31.5502,32.0002 31.0002,32.0002 M31.0002,26.0002 L17.0002,26.0002 C16.4392,26.0002 16.0002,26.4492 16.0002,27.0002 C16.0002,27.5502 16.4392,28.0002 17.0002,28.0002 L31.0002,28.0002 C31.5502,28.0002 32.0002,27.5502 32.0002,27.0002 C32.0002,26.4492 31.5502,26.0002 31.0002,26.0002 M46.0002,27.4202 L46.0002,50.0002 L38.0002,50.0002 L38.0002,27.4202 C37.3102,27.2102 36.6402,26.9602 36.0002,26.6502 L36.0002,51.0002 C36.0002,51.5502 36.4392,52.0002 37.0002,52.0002 L47.0002,52.0002 C47.5502,52.0002 48.0002,51.5502 48.0002,51.0002 L48.0002,26.6502 C47.3592,26.9602 46.6892,27.2102 46.0002,27.4202" id="Fill-6"></path>
            </g>
        </g>
    </g>
</svg>