<?xml version="1.0" encoding="UTF-8" standalone="no"?>
<svg width="56px" height="44px" viewBox="0 0 56 44" version="1.1" xmlns="http://www.w3.org/2000/svg" xmlns:xlink="http://www.w3.org/1999/xlink">
    <!-- Generator: Sketch 43.2 (39069) - http://www.bohemiancoding.com/sketch -->
    <title>Critical Illness Insurance</title>
    <desc>Created with Sketch.</desc>
    <defs></defs>
    <g id="critical-illness-insurance" stroke="none" stroke-width="1" fill="none" fill-rule="evenodd">
        <g id="critical-illness-insurance" transform="translate(-670.000000, -402.000000)" fill="currentColor">
            <g id="critical-illness-insurance" transform="translate(670.000000, 402.000000)">
                <path d="M50.624,22.852 L32,41.582 L15.52,24.999 L22,24.999 C22.452,25 22.85,24.696 22.966,24.258 L25.989,12.921 L31.031,32.252 C31.14,32.666 31.499,32.965 31.925,32.998 C31.95,32.999 31.976,33 32,33 C32.397,33 32.76,32.764 32.918,32.394 L38.069,20.375 L40.105,24.448 C40.274,24.787 40.621,25 41,25 L45,25 C45.552,25 46,24.553 46,24 C46,23.448 45.552,23 45,23 L41.618,23 L38.894,17.553 C38.72,17.206 38.364,16.977 37.971,17 C37.581,17.012 37.234,17.248 37.081,17.606 L32.23,28.924 L26.968,8.748 C26.853,8.309 26.456,8.002 26.002,8 L26,8 C25.547,8 25.15,8.305 25.033,8.743 L21.231,23 L13.531,23 L13.4,22.868 C8.865,18.096 8.865,10.331 13.4,5.557 C15.579,3.263 18.472,2 21.544,2 C24.618,2 27.51,3.263 29.689,5.558 C30.23,6.125 30.723,6.76 31.154,7.444 C31.337,7.735 31.655,7.911 31.999,7.911 C32.343,7.911 32.661,7.735 32.844,7.446 C33.281,6.754 33.774,6.12 34.311,5.557 C36.489,3.263 39.392,2 42.464,2 C45.538,2 48.431,3.263 50.608,5.557 C55.142,10.331 55.142,18.096 50.624,22.852 M52.059,4.18 C49.499,1.485 46.092,0 42.464,0 C38.838,0 35.42,1.485 32.861,4.179 C32.562,4.494 32.274,4.827 32,5.176 C31.727,4.829 31.439,4.496 31.139,4.18 C28.579,1.485 25.172,0 21.544,0 C17.918,0 14.51,1.485 11.95,4.18 C7.074,9.311 6.729,17.424 10.912,23 L1,23 C0.447,23 0,23.448 0,24 C0,24.553 0.447,25 1,24.999 L12.7,24.999 L31.29,43.706 C31.478,43.894 31.733,44 32,44 C32.266,44 32.521,43.894 32.709,43.706 L52.059,24.246 C57.313,18.713 57.313,9.711 52.059,4.18"></path>
            </g>
        </g>
    </g>
</svg>