<?xml version="1.0" encoding="UTF-8" standalone="no"?>
<svg width="42px" height="50px" viewBox="0 0 42 50" version="1.1" xmlns="http://www.w3.org/2000/svg" xmlns:xlink="http://www.w3.org/1999/xlink">
    <!-- Generator: Sketch 43.2 (39069) - http://www.bohemiancoding.com/sketch -->
    <title>Dental Insurance</title>
    <desc>Created with Sketch.</desc>
    <defs></defs>
    <g id="dental-insurance" stroke="none" stroke-width="1" fill="none" fill-rule="evenodd">
        <g id="dental-insurance" transform="translate(-91.000000, -399.000000)" stroke-width="2" stroke="currentColor">
            <g id="dental-insurance" transform="translate(92.000000, 400.000000)">
                <path d="M40,10.445 C40,15.082 37.686,18.19 36.6,20.686 C35.895,22.294 35.286,23.688 35.124,25.189 C35,26.291 34.895,27.668 34.791,29.257 C34.505,33.299 34.419,37.136 33.086,42.083 C32.143,45.591 29.848,48.354 28.324,47.963 C24.286,46.924 22.038,31.344 20,31.344 C17.962,31.344 15.714,46.924 11.676,47.963 C10.152,48.354 7.857,45.591 6.914,42.083 C5.581,37.136 5.495,33.299 5.209,29.257 C5.105,27.668 5,26.291 4.876,25.189 C4.714,23.688 4.105,22.294 3.4,20.686 C2.314,18.19 0,15.082 0,10.445 C0,1.918 8.419,0 11.038,0 C12.171,0 13.381,0.275 14.647,0.559 C16.209,0.906 17.971,1.305 20,1.305 C22.029,1.305 23.791,0.906 25.353,0.559 C26.619,0.275 27.829,0 28.962,0 C31.581,0 40,1.918 40,10.445 Z"></path>
            </g>
        </g>
    </g>
</svg>