<?xml version="1.0" encoding="UTF-8" standalone="no"?>
<svg width="56px" height="40px" viewBox="0 0 56 40" version="1.1" xmlns="http://www.w3.org/2000/svg" xmlns:xlink="http://www.w3.org/1999/xlink">
    <!-- Generator: Sketch 43.2 (39069) - http://www.bohemiancoding.com/sketch -->
    <title>Discount Cards</title>
    <desc>Created with Sketch.</desc>
    <defs></defs>
    <g id="discount-cards" stroke="none" stroke-width="1" fill="none" fill-rule="evenodd" stroke-linejoin="round">
        <g id="discount-cards" transform="translate(-474.000000, -862.000000)" stroke="currentColor" stroke-width="2">
            <g id="discount-cards" transform="translate(475.000000, 863.000000)">
                <path d="M54,35 C54,36.657 52.656,38 51,38 L3,38 C1.343,38 0,36.657 0,35 L0,3 C0,1.343 1.343,0 3,0 L51,0 C52.656,0 54,1.343 54,3 L54,35 Z" id="Stroke-1"></path>
                <path d="M9,20 L19,6" id="Stroke-3" stroke-linecap="round"></path>
                <path d="M12,9 C12,10.657 10.657,12 9,12 C7.343,12 6,10.657 6,9 C6,7.343 7.343,6 9,6 C10.657,6 12,7.343 12,9 Z" id="Stroke-5"></path>
                <path d="M22,17 C22,18.657 20.657,20 19,20 C17.343,20 16,18.657 16,17 C16,15.343 17.343,14 19,14 C20.657,14 22,15.343 22,17 Z" id="Stroke-7"></path>
                <path d="M39,0 L39,38" id="Stroke-9"></path>
                <path d="M0,26 L54,26" id="Stroke-11"></path>
                <path d="M31,34 C31,29.583 34.582,26 39,26 C43.418,26 47,29.583 47,34" id="Stroke-13" stroke-linecap="round"></path>
                <path d="M35,26 C32.791,26 31,24.209 31,22 C31,19.791 32.791,18 35,18 C37.209,18 39,19.791 39,22" id="Stroke-15"></path>
                <path d="M43,26 C45.209,26 47,24.209 47,22 C47,19.791 45.209,18 43,18 C40.791,18 39,19.791 39,22" id="Stroke-17"></path>
            </g>
        </g>
    </g>
</svg>