<?xml version="1.0" encoding="UTF-8" standalone="no"?>
<svg width="52px" height="52px" viewBox="0 0 52 52" version="1.1" xmlns="http://www.w3.org/2000/svg" xmlns:xlink="http://www.w3.org/1999/xlink">
    <!-- Generator: Sketch 43.2 (39069) - http://www.bohemiancoding.com/sketch -->
    <title>Fixed Indemnity Insurance</title>
    <desc>Created with Sketch.</desc>
    <defs></defs>
    <g id="fixed-indemnity-insurance" stroke="none" stroke-width="1" fill="none" fill-rule="evenodd">
        <g id="fixed-indemnity-insurance" transform="translate(-281.000000, -697.000000)" fill="currentColor">
            <g id="fixed-indemnity-insurance" transform="translate(281.000000, 697.000000)">
                <path d="M25.0001,18.9983 L27.0001,18.9983 C28.1041,19.0013 28.9981,19.8953 29.0001,21.0003 C28.9981,22.1033 28.1041,22.9963 27.0001,23.0003 L22.0011,23.0003 C21.4471,23.0003 21.0011,23.4463 21.0011,24.0003 C21.0011,24.5523 21.4471,25.0003 22.0011,25.0003 L25.0001,24.9993 L25.0001,27.0003 C25.0001,27.5523 25.4471,27.9983 25.9991,27.9983 C26.5511,27.9983 27.0001,27.5523 27.0001,27.0003 L27.0001,24.9983 C29.2091,24.9983 31.0001,23.2093 31.0001,21.0003 C31.0001,18.7883 29.2091,17.0003 27.0001,17.0003 L25.0001,17.0003 C23.8961,16.9983 23.0031,16.1043 23.0011,14.9993 C23.0031,13.8943 23.8961,13.0013 25.0001,12.9993 L30.0001,12.9993 C30.5521,12.9993 31.0001,12.5513 31.0001,11.9993 C31.0001,11.4473 30.5521,11.0003 30.0001,11.0003 L27.0001,11.0003 L27.0001,9.0003 C27.0001,8.4473 26.5531,8.0003 26.0001,8.0003 C25.4461,8.0003 25.0001,8.4473 25.0001,9.0003 L25.0001,10.9993 C22.7901,11.0003 21.0011,12.7903 20.9991,14.9993 C21.0011,17.2093 22.7901,18.9983 25.0001,18.9983 L25.0001,18.9983 Z M50.0001,48.0003 C49.9991,48.2413 49.9491,48.4693 49.8701,48.6833 L33.0931,33.9993 L49.9341,19.2603 C49.9731,19.5033 50.0001,19.7493 50.0001,19.9993 L50.0001,48.0003 Z M47.9991,50.0003 L3.9991,50.0003 C3.8951,50.0003 3.7951,49.9843 3.6941,49.9693 L22.9051,33.1573 C23.7881,32.3843 24.8911,32.0003 25.9991,32.0003 C27.1071,32.0003 28.2101,32.3863 29.0931,33.1573 L48.3021,49.9673 C48.2021,49.9823 48.1031,50.0003 47.9991,50.0003 L47.9991,50.0003 Z M2.0001,48.0003 L2.0001,19.9993 C2.0001,19.7493 2.0251,19.5033 2.0641,19.2603 L18.9051,33.9993 L2.1281,48.6843 C2.0501,48.4703 2.0001,48.2413 2.0001,48.0003 L2.0001,48.0003 Z M4.0291,16.0973 L6.0001,14.7183 L6.0001,20.0473 L2.8491,17.2893 C3.1661,16.8303 3.5631,16.4233 4.0291,16.0973 L4.0291,16.0973 Z M44.0011,5.9983 L44.0001,21.7973 L31.5731,32.6703 L30.4111,31.6523 C29.1511,30.5503 27.5721,30.0003 25.9991,30.0003 C24.4281,30.0003 22.8471,30.5503 21.5871,31.6523 L20.4251,32.6693 L8.0001,21.7983 L8.0001,5.9983 L44.0011,5.9983 Z M22.8191,2.9423 C23.6951,2.3273 24.8421,1.9973 25.9991,2.0003 C27.1551,1.9973 28.3041,2.3273 29.1811,2.9423 L30.6921,4.0013 L21.3091,4.0013 L22.8191,2.9423 Z M46.0001,14.7193 L47.9681,16.0973 C48.4351,16.4233 48.8321,16.8303 49.1491,17.2893 L46.0001,20.0453 L46.0001,14.7193 Z M49.1161,14.4593 L46.0001,12.2773 L46.0001,5.0003 C46.0001,4.7353 45.8931,4.4773 45.7061,4.2923 C45.5211,4.1053 45.2631,4.0013 45.0001,4.0013 L34.1771,4.0013 L30.3261,1.3063 C29.0581,0.4203 27.5241,0.0023 25.9991,0.0003 C24.4731,0.0023 22.9391,0.4203 21.6731,1.3063 L17.8221,4.0013 L6.9991,4.0013 C6.7371,4.0013 6.4791,4.1053 6.2931,4.2923 C6.1061,4.4773 6.0001,4.7353 6.0001,5.0003 L6.0001,12.2773 L2.8841,14.4593 C1.0781,15.7243 0.0001,17.7963 0.0001,19.9993 L0.0001,48.0003 C0.0001,50.2093 1.7891,51.9983 3.9991,52.0003 L47.9991,52.0003 C50.2081,52.0003 52.0001,50.2093 52.0001,48.0003 L52.0001,19.9993 C52.0001,17.7963 50.9191,15.7243 49.1161,14.4593 L49.1161,14.4593 Z" id="Fill-1"></path>
            </g>
        </g>
    </g>
</svg>