<?xml version="1.0" encoding="UTF-8" standalone="no"?>
<svg width="53px" height="53px" viewBox="0 0 53 53" version="1.1" xmlns="http://www.w3.org/2000/svg" xmlns:xlink="http://www.w3.org/1999/xlink">
    <!-- Generator: Sketch 43.2 (39069) - http://www.bohemiancoding.com/sketch -->
    <title>Gap Medical Insurance</title>
    <desc>Created with Sketch.</desc>
    <defs></defs>
    <g id="gap-medical-insurance" stroke="none" stroke-width="1" fill="none" fill-rule="evenodd">
        <g id="gap-medical-insurance" transform="translate(-1061.000000, -397.000000)" fill="currentColor">
            <g id="gap-medical-insurance" transform="translate(1061.000000, 397.000000)">
                <path d="M44.6133,24.2689 C42.0813,24.2929 39.9433,25.3599 38.5673,26.2709 C38.3523,20.1119 37.1683,14.9339 35.2873,11.1279 C34.4703,9.4759 33.5053,8.0649 32.4153,6.9569 C36.7233,7.9869 40.5783,10.1099 43.6173,12.8809 C47.4973,16.4169 50.0213,20.9829 50.5213,25.5829 C49.1573,24.9809 47.0463,24.2769 44.6133,24.2689 M26.6133,24.2689 C22.3073,24.2789 18.6293,25.6749 16.6493,26.6039 C16.8313,20.5479 17.9903,15.5229 19.7293,12.0159 C21.6423,8.1709 24.1173,6.2639 26.5983,6.2689 L26.6133,6.2689 L26.6273,6.2689 C29.1063,6.2639 31.5833,8.1709 33.4943,12.0159 C35.2363,15.5229 36.3943,20.5479 36.5763,26.6039 C34.5973,25.6749 30.9193,24.2789 26.6133,24.2689 M8.6123,24.2689 C6.1773,24.2769 4.0673,24.9819 2.7033,25.5829 C3.2043,20.9829 5.7293,16.4169 9.6093,12.8809 C12.6493,10.1109 16.5033,7.9879 20.8083,6.9569 C19.7183,8.0659 18.7523,9.4759 17.9363,11.1279 C16.0563,14.9339 14.8733,20.1109 14.6563,26.2709 C13.2813,25.3599 11.1433,24.2929 8.6123,24.2689 M27.6113,4.2939 L27.6113,1.2679 C27.6113,0.7169 27.1663,0.2689 26.6123,0.2689 C26.0593,0.2689 25.6133,0.7169 25.6133,1.2679 L25.6133,4.2939 C11.7503,4.8339 0.6613,15.8629 0.6123,27.2679 C0.6123,27.6299 0.8123,27.9699 1.1313,28.1449 C1.4513,28.3189 1.8433,28.3059 2.1493,28.1119 C2.1513,28.1099 2.3033,28.0119 2.6313,27.8389 C3.6093,27.3169 5.9733,26.2619 8.6123,26.2679 C10.2823,26.2639 11.8793,26.9299 13.0513,27.6279 C13.6373,27.9749 14.1143,28.3249 14.4393,28.5819 C14.7663,28.8409 14.9203,28.9919 14.9203,28.9919 C15.2473,29.3029 15.7453,29.3579 16.1333,29.1219 C16.1333,29.1219 16.3983,28.9589 16.9283,28.6919 C18.3893,27.9499 21.7283,26.5289 25.6143,26.3119 L25.6143,47.2679 C25.6093,48.9219 24.2683,50.2649 22.6123,50.2699 C20.9573,50.2649 19.6163,48.9219 19.6113,47.2679 C19.6113,46.7159 19.1653,46.2679 18.6133,46.2679 C18.0613,46.2679 17.6133,46.7159 17.6133,47.2679 C17.6133,50.0289 19.8503,52.2679 22.6123,52.2679 C25.3753,52.2679 27.6123,50.0289 27.6123,47.2679 L27.6123,26.2969 C30.0943,26.4359 32.3503,27.0679 34.0383,27.7049 C34.9953,28.0649 35.7673,28.4239 36.2973,28.6919 C36.8263,28.9589 37.0923,29.1219 37.0923,29.1219 C37.2523,29.2199 37.4323,29.2679 37.6113,29.2679 C37.8633,29.2679 38.1133,29.1729 38.3043,28.9919 C38.3043,28.9919 38.4593,28.8409 38.7853,28.5819 C39.7593,27.7949 42.1093,26.2489 44.6133,26.2679 C46.3723,26.2659 48.0093,26.7279 49.1943,27.1989 C49.7893,27.4319 50.2673,27.6659 50.5943,27.8389 C50.9223,28.0119 51.0733,28.1119 51.0753,28.1119 C51.3843,28.3079 51.7713,28.3209 52.0933,28.1449 C52.4153,27.9679 52.6133,27.6349 52.6133,27.2679 C52.5633,15.8649 41.4793,4.8329 27.6113,4.2939" id="Fill-4"></path>
            </g>
        </g>
    </g>
</svg>