<?xml version="1.0" encoding="UTF-8" standalone="no"?>
<svg width="54px" height="52px" viewBox="0 0 54 52" version="1.1" xmlns="http://www.w3.org/2000/svg" xmlns:xlink="http://www.w3.org/1999/xlink">
    <!-- Generator: Sketch 43.2 (39069) - http://www.bohemiancoding.com/sketch -->
    <title>Health Insurance</title>
    <desc>Created with Sketch.</desc>
    <defs></defs>
    <g id="health-insurance" stroke="none" stroke-width="1" fill="none" fill-rule="evenodd" stroke-linecap="round" stroke-linejoin="round">
        <g id="health-insurance" transform="translate(-870.000000, -850.000000)" stroke="currentColor" stroke-width="2">
            <g id="health-insurance" transform="translate(871.000000, 851.000000)">
                <path d="M26.0001,5.9999 L26.0001,49.9999" id="Stroke-1"></path>
                <path d="M29.0001,2.9999 C29.0001,4.6569 27.6561,5.9999 26.0001,5.9999 C24.3431,5.9999 23.0001,4.6569 23.0001,2.9999 C23.0001,1.3439 24.3431,-0.0001 26.0001,-0.0001 C27.6561,-0.0001 29.0001,1.3439 29.0001,2.9999 Z" id="Stroke-3"></path>
                <path d="M26.0001,10.9042 C26.0001,10.9042 22.0051,11.6702 20.0131,8.8972 C18.0201,6.1262 12.4211,1.6642 4.9381,7.9452 C4.9381,7.9452 2.5451,9.9482 0.0001,8.8972 C0.0001,8.8972 1.9061,13.7492 12.2161,14.7892 C12.2161,14.7892 18.3761,15.0472 26.0001,14.0082" id="Stroke-5"></path>
                <path d="M12.0421,10.7167 C12.0421,10.9777 10.9881,13.2257 7.7901,14.0077" id="Stroke-7"></path>
                <path d="M17.1535,11.3231 C17.1535,11.3231 16.7195,13.3741 13.8615,14.8171" id="Stroke-9"></path>
                <path d="M26.0001,10.9042 C26.0001,10.9042 29.9941,11.6702 31.9871,8.8972 C33.9791,6.1262 39.5781,1.6642 47.0621,7.9452 C47.0621,7.9452 49.4551,9.9482 52.0001,8.8972 C52.0001,8.8972 50.0941,13.7492 39.7841,14.7892 C39.7841,14.7892 33.6241,15.0472 26.0001,14.0082" id="Stroke-11"></path>
                <path d="M39.9581,10.7167 C39.9581,10.9777 41.0121,13.2257 44.2101,14.0077" id="Stroke-13"></path>
                <path d="M34.8458,11.3231 C34.8458,11.3231 35.2798,13.3741 38.1388,14.8171" id="Stroke-15"></path>
                <path d="M32.7667,18.5077 C36.8067,21.3897 35.3217,25.8237 28.1367,27.5787 L25.6917,28.3547 C18.0767,30.7687 17.3777,34.5447 23.5947,37.2087 C23.5947,37.2087 28.0297,39.5287 29.8807,40.9587 C32.8887,43.2837 32.6417,45.3097 30.2847,47.3777" id="Stroke-17"></path>
                <path d="M19.2335,18.5077 C15.1935,21.3897 16.6785,25.8237 23.8625,27.5787 L26.3085,28.3547 C33.9225,30.7687 34.6225,34.5447 28.4055,37.2087 C28.4055,37.2087 23.9705,39.5287 22.1195,40.9587 C19.1115,43.2837 19.3575,45.3097 21.7155,47.3777" id="Stroke-19"></path>
            </g>
        </g>
    </g>
</svg>