<?xml version="1.0" encoding="UTF-8" standalone="no"?>
<svg width="52px" height="52px" viewBox="0 0 52 52" version="1.1" xmlns="http://www.w3.org/2000/svg" xmlns:xlink="http://www.w3.org/1999/xlink">
    <!-- Generator: Sketch 43.2 (39069) - http://www.bohemiancoding.com/sketch -->
    <title>Health Saving Account</title>
    <desc>Created with Sketch.</desc>
    <defs></defs>
    <g id="health-savings-account" stroke="none" stroke-width="1" fill="none" fill-rule="evenodd">
        <g id="health-savings-account" transform="translate(-476.000000, -697.000000)" fill="currentColor">
            <g id="health-savings-account" transform="translate(476.000000, 697.000000)">
                <path d="M27.0001,8.9998 L32.0001,8.9998 C32.5501,8.9998 33.0001,8.5498 33.0001,7.9998 C33.0001,7.4498 32.5501,6.9998 32.0001,6.9998 L29.0001,6.9998 L29.0001,4.9998 C29.0001,4.4498 28.5501,3.9998 28.0001,3.9998 C27.4501,3.9998 27.0001,4.4498 27.0001,4.9998 L27.0001,6.9998 C25.9001,6.9998 24.9001,7.4498 24.1701,8.1698 C23.4501,8.8998 23.0001,9.8998 23.0001,10.9998 C23.0001,13.2098 24.7901,14.9998 27.0001,14.9998 L29.0001,14.9998 C30.1001,14.9998 31.0001,15.8908 31.0001,16.9998 C31.0001,18.1008 30.1001,18.9998 29.0001,18.9998 L24.0001,18.9998 C23.4501,18.9998 23.0001,19.4398 23.0001,19.9998 C23.0001,20.5498 23.4501,20.9998 24.0001,20.9998 L27.0001,20.9998 L27.0001,22.9998 C27.0001,23.5498 27.4501,23.9998 28.0001,23.9998 C28.5501,23.9998 29.0001,23.5498 29.0001,22.9998 L29.0001,20.9998 C31.2101,20.9998 33.0001,19.2098 33.0001,16.9998 C33.0001,14.7898 31.2101,12.9998 29.0001,12.9998 L27.0001,12.9998 C25.9001,12.9898 25.0001,12.1008 25.0001,10.9998 C25.0001,9.8908 25.9001,8.9998 27.0001,8.9998 L27.0001,8.9998 Z M28.0001,25.9998 C21.3701,25.9798 16.0101,20.6298 16.0001,13.9998 C16.0101,7.3698 21.3701,2.0098 28.0001,1.9998 C34.6301,2.0098 39.9901,7.3698 40.0001,13.9998 C39.9901,20.6298 34.6301,25.9798 28.0001,25.9998 L28.0001,25.9998 Z M28.0001,-0.0002 C20.2701,-0.0002 14.0001,6.2708 14.0001,13.9998 C14.0001,21.7298 20.2701,27.9998 28.0001,27.9998 C35.7301,27.9998 42.0001,21.7298 42.0001,13.9998 C42.0001,6.2708 35.7301,-0.0002 28.0001,-0.0002 L28.0001,-0.0002 Z M29.0001,12.9998 L27.0001,12.9998 C25.9001,12.9898 25.0001,12.1008 25.0001,10.9998 C25.0001,9.8908 25.9001,8.9998 27.0001,8.9998 L32.0001,8.9998 C32.5501,8.9998 33.0001,8.5498 33.0001,7.9998 C33.0001,7.4498 32.5501,6.9998 32.0001,6.9998 L29.0001,6.9998 L29.0001,4.9998 C29.0001,4.4498 28.5501,3.9998 28.0001,3.9998 C27.4501,3.9998 27.0001,4.4498 27.0001,4.9998 L27.0001,6.9998 C25.9001,6.9998 24.9001,7.4498 24.1701,8.1698 C23.4501,8.8998 23.0001,9.8998 23.0001,10.9998 C23.0001,13.2098 24.7901,14.9998 27.0001,14.9998 L29.0001,14.9998 C30.1001,14.9998 31.0001,15.8908 31.0001,16.9998 C31.0001,18.1008 30.1001,18.9998 29.0001,18.9998 L24.0001,18.9998 C23.4501,18.9998 23.0001,19.4398 23.0001,19.9998 C23.0001,20.5498 23.4501,20.9998 24.0001,20.9998 L27.0001,20.9998 L27.0001,22.9998 C27.0001,23.5498 27.4501,23.9998 28.0001,23.9998 C28.5501,23.9998 29.0001,23.5498 29.0001,22.9998 L29.0001,20.9998 C31.2101,20.9998 33.0001,19.2098 33.0001,16.9998 C33.0001,14.7898 31.2101,12.9998 29.0001,12.9998 L29.0001,12.9998 Z M37.4701,44.1098 L23.8601,47.9998 L12.0001,47.9998 L12.0001,38.9998 C12.9101,38.9998 13.7701,38.6408 14.4201,37.9998 L16.5901,35.8298 C17.7501,34.6598 19.3501,33.9998 21.0001,33.9998 L33.0301,33.9998 C33.0301,34.8198 32.7001,35.5698 32.1501,36.1198 C31.6101,36.6598 30.8601,36.9998 30.0301,36.9998 L24.5001,36.9998 C23.6701,36.9998 23.0001,37.6698 23.0001,38.4998 C23.0001,39.3298 23.6701,39.9998 24.5001,39.9998 L37.0001,39.9998 C37.2701,39.9998 37.5201,39.8908 37.7101,39.7098 L45.7101,31.6998 C46.1601,31.2398 46.8201,30.9998 47.5001,30.9998 C48.1801,30.9998 48.8301,31.2398 49.2901,31.6998 L49.5801,31.9998 L37.4701,44.1098 Z M40.7101,31.6998 C41.1601,31.2398 41.8201,30.9998 42.5001,30.9998 C42.8201,30.9998 43.1301,31.0498 43.4201,31.1598 L36.5801,37.9998 L34.4201,37.9998 L40.7101,31.6998 Z M51.7101,31.2898 L50.7101,30.2898 C49.8301,29.4198 48.6501,28.9998 47.5001,28.9998 C46.6301,28.9998 45.7501,29.2298 45.0001,29.7198 C44.2401,29.2298 43.3701,28.9998 42.5001,28.9998 C41.6301,28.9998 40.7501,29.2298 40.0001,29.7198 C39.5301,30.1998 38.4201,31.1598 38.4201,31.1598 L34.9901,34.5898 C35.0201,34.3998 35.0301,34.1998 35.0301,33.9998 L35.0301,32.9998 C35.0301,32.9498 35.0201,32.8998 35.0101,32.8508 C34.8601,32.1408 33.6201,31.9998 33.6201,31.9998 L21.0001,31.9998 C18.8201,31.9998 16.7201,32.8698 15.1701,34.4098 L13.0001,36.5798 C12.7401,36.8508 12.3701,36.9998 12.0001,36.9998 L12.0001,34.9998 C12.0001,34.7298 11.8901,34.4798 11.7101,34.2898 C11.5201,34.1008 11.2601,33.9998 11.0001,33.9998 L1.0001,33.9998 C0.4501,33.9998 0.0001,34.4398 0.0001,34.9998 C0.0001,35.5498 0.4501,35.9998 1.0001,35.9998 L10.0001,35.9998 L10.0001,49.9998 L1.0001,49.9998 C0.4501,49.9998 0.0001,50.4398 0.0001,50.9998 C0.0001,51.5498 0.4501,51.9998 1.0001,51.9998 L11.0001,51.9998 C11.2701,51.9998 11.5201,51.8908 11.7101,51.6998 C11.9001,51.5208 12.0001,51.2598 12.0001,50.9998 L12.0001,49.9998 L24.0001,49.9998 L24.2801,49.9598 L38.2701,45.9598 C38.4401,45.9098 38.5901,45.8198 38.7101,45.7098 L51.7101,32.7098 C51.9001,32.5098 52.0001,32.2598 52.0001,31.9998 C52.0001,31.7298 51.9001,31.4798 51.7101,31.2898 L51.7101,31.2898 Z M29.0001,12.9998 L27.0001,12.9998 C25.9001,12.9898 25.0001,12.1008 25.0001,10.9998 C25.0001,9.8908 25.9001,8.9998 27.0001,8.9998 L32.0001,8.9998 C32.5501,8.9998 33.0001,8.5498 33.0001,7.9998 C33.0001,7.4498 32.5501,6.9998 32.0001,6.9998 L29.0001,6.9998 L29.0001,4.9998 C29.0001,4.4498 28.5501,3.9998 28.0001,3.9998 C27.4501,3.9998 27.0001,4.4498 27.0001,4.9998 L27.0001,6.9998 C25.9001,6.9998 24.9001,7.4498 24.1701,8.1698 C23.4501,8.8998 23.0001,9.8998 23.0001,10.9998 C23.0001,13.2098 24.7901,14.9998 27.0001,14.9998 L29.0001,14.9998 C30.1001,14.9998 31.0001,15.8908 31.0001,16.9998 C31.0001,18.1008 30.1001,18.9998 29.0001,18.9998 L24.0001,18.9998 C23.4501,18.9998 23.0001,19.4398 23.0001,19.9998 C23.0001,20.5498 23.4501,20.9998 24.0001,20.9998 L27.0001,20.9998 L27.0001,22.9998 C27.0001,23.5498 27.4501,23.9998 28.0001,23.9998 C28.5501,23.9998 29.0001,23.5498 29.0001,22.9998 L29.0001,20.9998 C31.2101,20.9998 33.0001,19.2098 33.0001,16.9998 C33.0001,14.7898 31.2101,12.9998 29.0001,12.9998 L29.0001,12.9998 Z" id="Fill-1"></path>
            </g>
        </g>
    </g>
</svg>