<?xml version="1.0" encoding="UTF-8" standalone="no"?>
<svg width="52px" height="55px" viewBox="0 0 52 55" version="1.1" xmlns="http://www.w3.org/2000/svg" xmlns:xlink="http://www.w3.org/1999/xlink">
    <!-- Generator: Sketch 43.2 (39069) - http://www.bohemiancoding.com/sketch -->
    <title>Hospitalization</title>
    <desc>Created with Sketch.</desc>
    <defs>
        <polygon id="path-1" points="0.0003 40 52 40 52 0.0001 0.0003 0.0001"></polygon>
    </defs>
    <g id="hospitalization" stroke="none" stroke-width="1" fill="none" fill-rule="evenodd">
        <g id="hospitalization" transform="translate(-91.000000, -846.000000)">
            <g id="hospitalization" transform="translate(91.000000, 847.000000)">
                <g id="Group-3" transform="translate(0.000000, 14.000000)">
                    <mask id="mask-2" fill="white">
                        <use xlink:href="#path-1"></use>
                    </mask>
                    <g id="Clip-2"></g>
                    <path d="M10.0003,20.0001 C7.7943,20.0001 6.0003,18.2051 6.0003,16.0001 C6.0003,13.7941 7.7943,12.0001 10.0003,12.0001 C12.2053,12.0001 14.0003,13.7941 14.0003,16.0001 C14.0003,18.2051 12.2053,20.0001 10.0003,20.0001 L10.0003,20.0001 Z M16.0003,16.0001 C16.0003,12.6911 13.3093,10.0001 10.0003,10.0001 C6.6913,10.0001 4.0003,12.6911 4.0003,16.0001 C4.0003,19.3091 6.6913,22.0001 10.0003,22.0001 C13.3093,22.0001 16.0003,19.3091 16.0003,16.0001 L16.0003,16.0001 Z M2.0003,30.0001 L50.0003,30.0001 L50.0003,23.9991 L2.0003,23.9991 L2.0003,30.0001 Z M20.0003,13.9991 L39.0003,13.9991 C42.8593,14.0001 46.0003,17.1401 46.0003,21.0001 L46.0003,22.0001 L20.0003,22.0001 L20.0003,13.9991 Z M51.0003,10.0001 C50.4473,10.0001 50.0003,10.4471 50.0003,11.0001 L50.0003,22.0001 L48.0003,22.0001 L48.0003,21.0001 C48.0003,16.0371 43.9633,12.0001 39.0003,12.0001 L19.0003,12.0001 C18.4473,12.0001 18.0003,12.4471 18.0003,13.0001 L18.0003,22.0001 L10.0003,22.0001 L2.0003,22.0001 L2.0003,1.0001 C2.0003,0.4471 1.5523,0.0001 1.0003,0.0001 C0.4473,0.0001 0.0003,0.4471 0.0003,1.0001 L0.0003,39.0001 C0.0003,39.5521 0.4473,40.0001 1.0003,40.0001 C1.5523,40.0001 2.0003,39.5521 2.0003,39.0001 L2.0003,31.9991 L50.0003,31.9991 L50.0003,39.0001 C50.0003,39.5521 50.4473,40.0001 51.0003,40.0001 C51.5533,40.0001 52.0003,39.5521 52.0003,39.0001 L52.0003,11.0001 C52.0003,10.4471 51.5533,10.0001 51.0003,10.0001 L51.0003,10.0001 Z" id="Fill-1" fill="currentColor" mask="url(#mask-2)"></path>
                </g>
                <polygon id="Stroke-4" stroke="currentColor" stroke-width="2" stroke-linejoin="round" points="36.0003 7.1427 28.8563 7.1427 28.8563 -0.0003 23.1433 -0.0003 23.1433 7.1427 16.0003 7.1427 16.0003 12.8577 23.1433 12.8577 23.1433 19.9997 28.8563 19.9997 28.8563 12.8577 36.0003 12.8577"></polygon>
            </g>
        </g>
    </g>
</svg>