<?xml version="1.0" encoding="UTF-8" standalone="no"?>
<svg width="44px" height="52px" viewBox="0 0 44 52" version="1.1" xmlns="http://www.w3.org/2000/svg" xmlns:xlink="http://www.w3.org/1999/xlink">
    <!-- Generator: Sketch 43.2 (39069) - http://www.bohemiancoding.com/sketch -->
    <title>Individual &amp; Family Insurance</title>
    <desc>Created with Sketch.</desc>
    <defs></defs>
    <g id="individual-family-insurance" stroke="none" stroke-width="1" fill="none" fill-rule="evenodd">
        <g id="individual-family-insurance" transform="translate(-90.000000, -246.000000)" fill="currentColor">
            <g id="individual-family-insurance" transform="translate(90.000000, 246.000000)">
                <path d="M35,44 C34.448,44 34,44.447 34,45 L34,50 L30,50 L30,45 C30,44.447 29.553,44 29,44 L26,44 L26,42.266 C26.728,42.972 27.896,43.212 28.879,42.774 C30.229,42.173 30.856,40.628 30.311,39.265 L27.66,32.498 C27.04,30.911 25.859,29.795 24.422,29.436 C24.131,29.363 23.846,29.327 23.559,29.272 C25.015,28.397 26,26.818 26,25 C26,23.613 25.431,22.357 24.516,21.451 L25.453,17.953 C25.728,16.93 26.588,16.18 27.614,16.028 L31.293,19.707 C31.684,20.098 32.316,20.098 32.707,19.707 L36.386,16.028 C37.412,16.18 38.272,16.93 38.547,17.953 L41.966,30.7 C42.108,31.232 41.792,31.782 41.259,31.925 C41.001,31.995 40.73,31.959 40.5,31.825 C40.269,31.691 40.104,31.477 40.035,31.219 L40.034,31.219 L37.963,23.49 C37.82,22.957 37.272,22.639 36.738,22.783 C36.205,22.926 35.889,23.475 36.031,24.008 L41.389,44 L35,44 Z M25.929,37.311 C25.751,36.864 25.281,36.611 24.812,36.699 C24.341,36.79 24,37.202 24,37.682 L24,50 L18,50 L18,37.682 C18,37.202 17.66,36.79 17.189,36.699 C16.715,36.611 16.25,36.864 16.071,37.311 L14.75,40.615 C14.624,40.929 14.243,41.084 13.936,40.948 C13.571,40.786 13.402,40.369 13.553,39.993 L16.203,33.227 C16.584,32.25 17.262,31.576 18.063,31.377 C20.07,30.877 21.931,30.877 23.937,31.377 C24.738,31.576 25.416,32.25 25.798,33.227 L28.451,40 C28.599,40.369 28.429,40.786 28.066,40.947 C27.753,41.086 27.376,40.929 27.251,40.616 L25.929,37.311 Z M16,50 L6,50 L6,21 C6,20.447 5.553,20 5,20 C4.448,20 4,20.447 4,21 L4,31.815 C2.839,31.401 2,30.302 2,29 L2,17.23 C2,16.142 2.692,15.182 3.733,14.838 L5.734,14.148 L10.293,18.707 C10.684,19.098 11.316,19.098 11.707,18.707 L16.266,14.148 L18.278,14.841 C19.309,15.182 20,16.142 20,17.23 L20,20.102 C17.721,20.566 16,22.586 16,25 C16,26.818 16.986,28.397 18.441,29.272 C18.154,29.327 17.869,29.363 17.578,29.436 C16.141,29.795 14.96,30.911 14.341,32.498 L11.693,39.258 C11.145,40.628 11.771,42.173 13.123,42.775 C14.1,43.209 15.273,42.972 16,42.266 L16,50 Z M21,22 C22.654,22 24,23.346 24,25 C24,26.654 22.654,28 21,28 C19.346,28 18,26.654 18,25 C18,23.346 19.346,22 21,22 L21,22 Z M40.761,33.929 C40.839,33.936 40.916,33.96 40.995,33.96 C41.255,33.96 41.518,33.926 41.776,33.856 C42.55,33.649 43.196,33.153 43.597,32.459 C43.997,31.765 44.104,30.957 43.896,30.183 L40.479,17.436 C39.937,15.412 38.096,14 36,14 C35.735,14 35.48,14.105 35.293,14.293 L32,17.586 L28.707,14.293 C28.52,14.105 28.266,14 28,14 C25.905,14 24.063,15.412 23.521,17.436 L22.745,20.332 C22.503,20.24 22.259,20.154 22,20.102 L22,17.23 C22,15.277 20.757,13.555 18.917,12.945 L16.325,12.055 C15.964,11.928 15.563,12.021 15.293,12.293 L11,16.586 L6.707,12.293 C6.437,12.021 6.035,11.928 5.675,12.055 L3.095,12.942 C1.244,13.555 0,15.277 0,17.23 L0,29 C0,31.414 1.721,33.435 4,33.898 L4,51 C4,51.553 4.448,52 5,52 L25,52 C25.553,52 26,51.553 26,51 L26,45.999 L28,45.999 L28,51 C28,51.553 28.448,52 29,52 L35,52 C35.553,52 36,51.553 36,51 L36,45.999 L42.691,45.999 C43.003,46 43.296,45.855 43.485,45.608 C43.674,45.362 43.738,45.041 43.657,44.741 L40.761,33.929 Z M32,4 C34.206,4 36,5.795 36,8 C36,10.205 34.206,12 32,12 C29.795,12 28,10.205 28,8 C28,5.795 29.795,4 32,4 L32,4 Z M32,14 C35.309,14 38,11.309 38,8 C38,4.691 35.309,2 32,2 C28.691,2 26,4.691 26,8 C26,11.309 28.691,14 32,14 L32,14 Z M11,2 C13.206,2 15,3.795 15,6 C15,8.205 13.206,10 11,10 C8.795,10 7,8.205 7,6 C7,3.795 8.795,2 11,2 L11,2 Z M11,12 C14.309,12 17,9.309 17,6 C17,2.691 14.309,0 11,0 C7.691,0 5,2.691 5,6 C5,9.309 7.691,12 11,12 L11,12 Z"></path>
            </g>
        </g>
    </g>
</svg>