<?xml version="1.0" encoding="UTF-8" standalone="no"?>
<svg width="57px" height="48px" viewBox="0 0 57 48" version="1.1" xmlns="http://www.w3.org/2000/svg" xmlns:xlink="http://www.w3.org/1999/xlink">
    <!-- Generator: Sketch 43.2 (39069) - http://www.bohemiancoding.com/sketch -->
    <title>International Health Insurance</title>
    <desc>Created with Sketch.</desc>
    <defs>
        <polygon id="path-1" points="1.62979981e-15 47.9993 1.62979981e-15 0 50.4760295 0 50.4760295 47.9993 0 47.9993"></polygon>
    </defs>
    <g id="international-health-insurance" stroke="none" stroke-width="1" fill="none" fill-rule="evenodd">
        <g id="international-health-insurance" transform="translate(-864.000000, -551.000000)">
            <g id="international-health-insurance" transform="translate(864.000000, 551.000000)">
                <g id="Group-3">
                    <mask id="mask-2" fill="white">
                        <use xlink:href="#path-1"></use>
                    </mask>
                    <g id="Clip-2"></g>
                    <path d="M2.0484,27.3103 C1.7774,26.2703 2.7484,24.4003 6.0884,22.0303 C6.0384,22.6793 5.9984,23.3393 5.9984,23.9993 C5.9984,25.9593 6.2374,27.8603 6.6884,29.6793 C3.6684,29.1903 2.2984,28.2193 2.0484,27.3103 M24.3184,2.7493 L25.3484,4.0603 L24.1884,5.8703 C23.9384,6.2493 23.9784,6.7593 24.2984,7.1003 L27.1974,10.1503 L23.5274,12.1203 C23.3184,12.2303 23.1574,12.4103 23.0774,12.6293 L21.0774,17.5603 C21.0274,17.6793 20.9984,17.8103 20.9984,17.9403 L20.9984,20.5893 L20.7084,20.2993 C20.5184,20.1103 20.2684,19.9993 19.9984,19.9993 L14.9984,19.9993 C14.5274,19.9993 14.1174,20.3393 14.0184,20.8103 L13.6574,22.5893 L10.2284,14.3603 C12.9984,8.7093 18.1284,4.4103 24.3184,2.7493 M50.0084,35.3903 C49.5384,35.0893 48.9284,35.2303 48.6284,35.7003 C44.5684,42.1503 37.6084,45.9993 29.9984,45.9993 L29.7774,45.9993 L29.8084,45.4503 L33.8274,39.5703 C33.9384,39.4003 33.9984,39.2003 33.9984,38.9993 L33.9984,31.9993 C33.9984,31.4503 33.5584,30.9993 32.9984,30.9993 C32.4474,30.9993 31.9984,31.4503 31.9984,31.9993 L31.9984,38.6903 L27.9984,44.5603 C27.8884,44.7093 27.8274,44.8903 27.8184,45.0703 L27.7774,45.8903 C26.7184,45.7803 25.6784,45.6003 24.6684,45.3503 L24.4684,42.0703 C24.4584,41.8393 24.3584,41.6293 24.2084,41.4593 L17.7374,34.4593 C17.3584,34.0603 16.7284,34.0303 16.3184,34.4103 C15.9184,34.7893 15.8884,35.4193 16.2684,35.8203 L22.4984,42.5493 L22.6284,44.7303 C16.6174,42.5803 11.8084,37.8903 9.4984,31.9593 C9.7184,31.9693 9.9384,31.9803 10.1574,31.9903 C10.5084,31.9993 10.8674,31.9993 11.2284,31.9993 C15.0584,31.9993 19.5384,31.4903 24.2584,30.5203 C25.9784,30.1693 27.7284,29.7593 29.4984,29.2803 C30.0084,29.1403 30.5084,28.9993 31.0084,28.8503 C31.3384,28.7493 31.6684,28.6603 31.9874,28.5603 C32.8274,28.3103 33.6574,28.0493 34.4684,27.7803 C34.4684,27.7803 36.2184,27.2003 37.0984,26.8793 C37.0984,26.8793 37.4384,26.7403 37.6174,26.6693 C37.8084,26.5893 37.9984,26.5203 38.1884,26.4503 C38.3184,26.4003 38.4474,26.3503 38.5774,26.2993 C39.5484,25.9293 40.4874,25.5493 41.4074,25.1503 C41.9074,24.9193 42.1384,24.3303 41.9184,23.8303 C41.6974,23.3203 41.1084,23.0893 40.5984,23.3203 C39.8674,23.6403 39.1174,23.9503 38.3484,24.2403 L38.3484,24.2493 L38.3384,24.2493 C38.0184,24.3703 37.6974,24.4993 37.3674,24.6203 C36.9184,24.7993 35.9984,25.1203 35.9984,25.1203 C35.3274,25.3703 34.6574,25.6003 33.9984,25.8203 C33.9984,25.8203 32.5274,26.3103 31.7684,26.5393 C31.5184,26.6203 31.2684,26.6903 31.0084,26.7703 C30.3384,26.9693 29.6684,27.1603 28.9784,27.3503 C27.3884,27.7803 25.8084,28.1503 24.2584,28.4803 C19.0984,29.5703 14.2374,30.1003 10.2184,29.9903 C9.7184,29.9803 9.2584,29.9503 8.8184,29.9193 C8.2884,28.0393 7.9984,26.0493 7.9984,23.9993 C7.9984,21.5493 8.4074,19.1903 9.1574,16.9803 L13.0774,26.3903 C13.1284,26.5093 13.1974,26.6203 13.2984,26.7093 L14.2984,27.7093 C14.4874,27.9103 14.7484,27.9993 14.9984,27.9993 C15.2584,27.9993 15.5084,27.9103 15.7084,27.7093 C16.0984,27.3203 16.0984,26.6903 15.7084,26.2993 L15.0884,25.6693 L15.8184,21.9993 L19.5884,21.9993 L21.2984,23.7093 C21.5774,23.9993 22.0084,24.0803 22.3884,23.9293 C22.7584,23.7703 22.9984,23.4103 22.9984,22.9993 L22.9984,18.1293 L24.7884,13.7093 L29.2884,11.2893 C29.5684,11.1403 29.7584,10.8793 29.8084,10.5703 C29.8584,10.2593 29.7584,9.9503 29.5484,9.7193 L26.2884,6.2893 L27.4184,4.5393 C27.6484,4.1903 27.6284,3.7193 27.3674,3.3793 L26.4984,2.2893 C27.6384,2.1003 28.8084,1.9993 29.9984,1.9993 C34.2884,1.9993 38.4384,3.2403 42.0274,5.5803 C42.4784,5.8793 43.1084,5.7493 43.4074,5.2893 C43.7084,4.8303 43.5774,4.2093 43.1174,3.9103 C39.2084,1.3503 34.6784,-0.0007 29.9984,-0.0007 C20.3674,-0.0007 12.0584,5.7093 8.2374,13.9103 C8.2284,13.9293 8.2184,13.9503 8.2084,13.9693 C7.4184,15.6793 6.8184,17.4993 6.4474,19.3903 C1.6384,22.4103 -0.5526,25.3203 0.1174,27.8303 C0.6884,29.9503 3.1574,31.2993 7.3084,31.7893 C10.5484,41.2093 19.4874,47.9993 29.9984,47.9993 C38.2984,47.9993 45.8984,43.7993 50.3184,36.7593 C50.6174,36.2993 50.4784,35.6793 50.0084,35.3903" id="Fill-1" fill="currentColor" mask="url(#mask-2)"></path>
                </g>
                <polygon id="Stroke-4" stroke="currentColor" stroke-width="2" stroke-linejoin="round" points="55.9996 17.5623 48.8566 17.5623 48.8566 10.4193 43.1436 10.4193 43.1436 17.5623 35.9996 17.5623 35.9996 23.2773 43.1436 23.2773 43.1436 30.4193 48.8566 30.4193 48.8566 23.2773 55.9996 23.2773"></polygon>
            </g>
        </g>
    </g>
</svg>