<?xml version="1.0" encoding="UTF-8" standalone="no"?>
<svg width="54px" height="46px" viewBox="0 0 54 46" version="1.1" xmlns="http://www.w3.org/2000/svg" xmlns:xlink="http://www.w3.org/1999/xlink">
    <!-- Generator: Sketch 43.2 (39069) - http://www.bohemiancoding.com/sketch -->
    <title>Life Insurance</title>
    <desc>Created with Sketch.</desc>
    <defs></defs>
    <g id="life-insurance" stroke="none" stroke-width="1" fill="none" fill-rule="evenodd" stroke-linejoin="round">
        <g id="life-insurance" transform="translate(-475.000000, -401.000000)" stroke="currentColor" stroke-width="2">
            <g id="life-insurance" transform="translate(476.000000, 402.000000)">
                <path d="M10.3999,43.9998 L-0.0001,27.3598 L-0.0001,8.6398 L1.0399,8.6398 C2.7629,8.6398 4.1599,10.0368 4.1599,11.7598 L4.1599,23.1998 L14.0399,33.0798 C14.3279,33.3678 14.7929,33.3678 15.0799,33.0798 C15.3679,32.7928 15.3679,32.3278 15.0799,32.0398 L10.5259,27.4858 C9.3069,26.2688 9.3069,24.2918 10.5259,23.0738 L11.4399,22.1598 L20.6739,31.3938 C22.0839,32.8038 22.8799,34.7268 22.8799,36.7198 L22.8799,43.9998" id="Stroke-21" stroke-linecap="round"></path>
                <path d="M41.5996,43.9998 L51.9996,27.3598 L51.9996,8.6398 L50.9596,8.6398 C49.2376,8.6398 47.8396,10.0368 47.8396,11.7598 L47.8396,23.1998 L37.9596,33.0798 C37.6726,33.3678 37.2066,33.3678 36.9196,33.0798 C36.6326,32.7928 36.6326,32.3278 36.9196,32.0398 L41.4736,27.4858 C42.6926,26.2688 42.6926,24.2918 41.4736,23.0738 L40.5596,22.1598 L31.3266,31.3938 C29.9156,32.8038 29.1206,34.7268 29.1206,36.7198 L29.1206,43.9998" id="Stroke-23" stroke-linecap="round"></path>
                <path d="M36.4854,12.3328 C39.1454,9.5138 39.1454,4.9368 36.4854,2.1168 C33.8274,-0.7062 29.5184,-0.7062 26.8604,2.1168 C26.5324,2.4628 26.2464,2.8378 26.0004,3.2328 C25.7534,2.8378 25.4674,2.4628 25.1394,2.1168 C22.4824,-0.7062 18.1724,-0.7062 15.5144,2.1168 C12.8554,4.9368 12.8554,9.5138 15.5144,12.3328 L25.9434,22.8798 L36.4854,12.3328 Z" id="Stroke-25"></path>
            </g>
        </g>
    </g>
</svg>