<?xml version="1.0" encoding="UTF-8" standalone="no"?>
<svg width="53px" height="53px" viewBox="0 0 53 53" version="1.1" xmlns="http://www.w3.org/2000/svg" xmlns:xlink="http://www.w3.org/1999/xlink">
    <!-- Generator: Sketch 43.2 (39069) - http://www.bohemiancoding.com/sketch -->
    <title>Long Term Care</title>
    <desc>Created with Sketch.</desc>
    <defs></defs>
    <g id="long-term-care" stroke="none" stroke-width="1" fill="none" fill-rule="evenodd" stroke-linejoin="round">
        <g id="long-term-care" transform="translate(-281.000000, -849.000000)" stroke="currentColor" stroke-width="2">
            <g id="long-term-care" transform="translate(282.000000, 850.000000)">
                <polygon id="Stroke-43" stroke-linecap="round" points="50.3118 25.1064 25.3118 0.1064 0.3118 25.1064 4.3118 29.1064 25.3118 8.1064 46.3118 29.1064"></polygon>
                <path d="M6.3118,27.1064 L6.3118,48.1064 C6.3118,49.2114 7.2078,50.1064 8.3118,50.1064 L42.3118,50.1064 C43.4158,50.1064 44.3118,49.2114 44.3118,48.1064 L44.3118,27.1064" id="Stroke-45" stroke-linecap="round"></path>
                <path d="M33.7132,35.8222 C35.8442,33.5622 35.8442,29.8952 33.7132,27.6352 C31.5832,25.3742 28.1302,25.3742 26.0012,27.6352 C25.7372,27.9132 25.5092,28.2142 25.3122,28.5302 C25.1132,28.2142 24.8852,27.9132 24.6222,27.6352 C22.4922,25.3742 19.0392,25.3742 16.9102,27.6352 C14.7782,29.8952 14.7782,33.5622 16.9102,35.8222 L25.2662,44.2732 L33.7132,35.8222 Z" id="Stroke-47"></path>
            </g>
        </g>
    </g>
</svg>