<?xml version="1.0" encoding="UTF-8" standalone="no"?>
<svg width="52px" height="52px" viewBox="0 0 52 52" version="1.1" xmlns="http://www.w3.org/2000/svg" xmlns:xlink="http://www.w3.org/1999/xlink">
    <!-- Generator: Sketch 43.2 (39069) - http://www.bohemiancoding.com/sketch -->
    <title>Medicare Supplement</title>
    <desc>Created with Sketch.</desc>
    <defs></defs>
    <g id="medicare-supplement" stroke="none" stroke-width="1" fill="none" fill-rule="evenodd">
        <g id="medicare-supplement" transform="translate(-866.000000, -246.000000)" fill="currentColor">
            <g id="medicare-supplement" transform="translate(866.000000, 246.000000)">
                <path d="M2.392,37.053 C2.241,37.053 2,37.158 2,37.442 L2,49 C2,49.552 2.449,50 3,50 L37,50 C37.552,50 38,49.552 38,49 L38,37.442 C38,36.124 39.074,35.053 40.392,35.053 C41.08,35.053 41.71,35.345 42.168,35.876 C44.728,38.85 45.81,39 46,39 C48.168,39 50,35.794 50,32 C50,28.205 48.168,25 46,25 C45.81,25 44.728,25.151 42.168,28.124 C41.311,29.121 39.696,29.183 38.749,28.299 C38.266,27.849 38,27.231 38,26.559 L38,15 C38,14.449 37.552,14 37,13.999 L25.442,13.999 C24.433,14 23.555,13.389 23.204,12.445 C22.856,11.509 23.121,10.484 23.876,9.832 C26.85,7.276 27,6.192 27,6 C27,3.832 23.794,2 20,2 C16.206,2 13,3.832 13,6 C13,6.192 13.151,7.276 16.124,9.832 C16.88,10.484 17.145,11.509 16.797,12.445 C16.446,13.389 15.568,14 14.559,13.999 L3,13.999 C2.449,14 2,14.449 2,15 L2,26.559 C2,26.842 2.241,26.948 2.392,26.948 C2.495,26.948 2.578,26.907 2.653,26.819 C4.895,24.213 6.595,23 8,23 C11.365,23 14,26.953 14,32 C14,37.047 11.365,41 8,41 C6.595,41 4.895,39.786 2.653,37.181 C2.579,37.095 2.493,37.053 2.392,37.053 M37,52 L3,52 C1.346,52 0,50.655 0,49 L0,37.442 C0,36.124 1.074,35.053 2.392,35.053 C3.08,35.053 3.71,35.345 4.168,35.876 C6.728,38.85 7.81,39 8,39 C10.168,39 12,35.794 12,32 C12,28.205 10.168,25 8,25 C7.81,25 6.728,25.151 4.168,28.124 C3.71,28.656 3.08,28.948 2.392,28.948 C1.074,28.948 0,27.876 0,26.559 L0,15 C0,13.346 1.346,12 3,12 L14.559,12 C14.793,12 14.887,11.842 14.922,11.748 C14.962,11.641 14.977,11.484 14.82,11.348 C12.214,9.108 11,7.408 11,6 C11,2.636 14.954,0 20,0 C25.047,0 29,2.636 29,6 C29,7.408 27.787,9.108 25.181,11.348 C25.024,11.484 25.038,11.641 25.079,11.748 C25.114,11.842 25.207,12 25.442,12 L37,12 C38.655,12 40,13.346 40,15 L40,26.559 C40,26.675 40.037,26.766 40.114,26.837 C40.262,26.977 40.505,26.992 40.653,26.819 C42.895,24.213 44.595,23 46,23 C49.365,23 52,26.953 52,32 C52,37.047 49.365,41 46,41 C44.595,41 42.895,39.786 40.653,37.181 C40.578,37.093 40.495,37.053 40.392,37.053 C40.241,37.053 40,37.158 40,37.442 L40,49 C40,50.655 38.655,52 37,52" id="GAP-Medical-Insurance"></path>
            </g>
        </g>
    </g>
</svg>