<?xml version="1.0" encoding="UTF-8" standalone="no"?>
<svg width="44px" height="56px" viewBox="0 0 44 56" version="1.1" xmlns="http://www.w3.org/2000/svg" xmlns:xlink="http://www.w3.org/1999/xlink">
    <!-- Generator: Sketch 43.2 (39069) - http://www.bohemiancoding.com/sketch -->
    <title>Medicare Insurance</title>
    <desc>Created with Sketch.</desc>
    <defs></defs>
    <g id="medicare-insurance" stroke="none" stroke-width="1" fill="none" fill-rule="evenodd">
        <g id="medicare-insurance" transform="translate(-480.000000, -244.000000)" fill="currentColor">
            <g id="medicare-insurance" transform="translate(480.000000, 244.000000)">
                <path d="M42,54 L2,54 L2,51.754 L22,46.04 L42,51.754 L42,54 Z M9,33.999 L9,47.674 L5,48.816 L5,33.999 L9,33.999 Z M15,33.999 L15,45.96 L11,47.103 L11,33.999 L15,33.999 Z M21,33.999 L21,44.245 L17,45.389 L17,33.999 L21,33.999 Z M27,33.999 L27,45.389 L23,44.245 L23,33.999 L27,33.999 Z M33,33.999 L33,47.103 L29,45.96 L29,33.999 L33,33.999 Z M39,33.999 L39,48.816 L35,47.674 L35,33.999 L39,33.999 Z M4,32 L40,32 L40,29.999 L4,29.999 L4,32 Z M22,12 C29.974,12 36.495,19.092 36.955,28 L7.045,28 C7.505,19.092 14.026,12 22,12 L22,12 Z M21,8 L23,8 L23,10.057 C22.667,10.035 22.338,10 22,10 C21.662,10 21.333,10.035 21,10.057 L21,8 Z M43.274,50.038 L41,49.389 L41,34 C41.553,34 42,33.553 42,33 L42,29 C42,28.447 41.553,28 41,28 L38.955,28 C38.538,19.121 32.658,11.848 25,10.314 L25,7 C25,6.447 24.553,6 24,6 L23,6 L23,1 C23,0.447 22.553,0 22,0 C21.447,0 21,0.447 21,1 L21,6 L20,6 C19.447,6 19,6.447 19,7 L19,10.314 C11.342,11.848 5.462,19.121 5.045,28 L3,28 C2.447,28 2,28.447 2,29 L2,33 C2,33.553 2.447,34 3,34 L3,49.389 L0.726,50.038 C0.296,50.161 0,50.554 0,51 L0,55 C0,55.553 0.447,56 1,56 L43,56 C43.553,56 44,55.553 44,55 L44,51 C44,50.554 43.704,50.161 43.274,50.038 L43.274,50.038 Z"></path>
            </g>
        </g>
    </g>
</svg>