<?xml version="1.0" encoding="UTF-8" standalone="no"?>
<svg width="40px" height="52px" viewBox="0 0 40 52" version="1.1" xmlns="http://www.w3.org/2000/svg" xmlns:xlink="http://www.w3.org/1999/xlink">
    <!-- Generator: Sketch 43.2 (39069) - http://www.bohemiancoding.com/sketch -->
    <title>Medicare Part D</title>
    <desc>Created with Sketch.</desc>
    <defs></defs>
    <g id="medicare-part-d" stroke="none" stroke-width="1" fill="none" fill-rule="evenodd" stroke-linejoin="round">
        <g id="medicare-part-d" transform="translate(-1068.000000, -246.000000)" stroke="currentColor" stroke-width="2">
            <g id="medicare-part-d" transform="translate(1069.000000, 247.000000)">
                <path d="M0.0001,47 C0.0001,48.657 1.3441,50 3.0001,50 L35.0001,50 C36.6561,50 38.0001,48.657 38.0001,47 L38.0001,3 C38.0001,1.343 36.6561,0 35.0001,0 L12.0001,0 L0.0001,12 L0.0001,47 Z" id="Stroke-1"></path>
                <path d="M0.0001,12 L9.0001,12 C10.6561,12 12.0001,10.657 12.0001,9 L12.0001,0" id="Stroke-3"></path>
                <path d="M10.0001,28 L28.0001,28" id="Stroke-5" stroke-linecap="round"></path>
                <path d="M10.0001,34 L28.0001,34" id="Stroke-7" stroke-linecap="round"></path>
                <path d="M10.0001,40 L28.0001,40" id="Stroke-9" stroke-linecap="round"></path>
                <path d="M18.0001,12 L23.0001,12 C24.6571,12 26.0001,10.657 26.0001,9 C26.0001,7.343 24.6571,6 23.0001,6 L18.0001,6 L18.0001,18" id="Stroke-11" stroke-linecap="round"></path>
                <path d="M32.0001,22 L22.0001,12" id="Stroke-13" stroke-linecap="round"></path>
                <path d="M22.0001,22 L32.0001,12" id="Stroke-15" stroke-linecap="round"></path>
            </g>
        </g>
    </g>
</svg>