<?xml version="1.0" encoding="UTF-8" standalone="no"?>
<svg width="52px" height="52px" viewBox="0 0 52 52" version="1.1" xmlns="http://www.w3.org/2000/svg" xmlns:xlink="http://www.w3.org/1999/xlink">
    <!-- Generator: Sketch 43.2 (39069) - http://www.bohemiancoding.com/sketch -->
    <title>Pet Insurance</title>
    <desc>Created with Sketch.</desc>
    <defs></defs>
    <g id="pet-insurance" stroke="none" stroke-width="1" fill="none" fill-rule="evenodd">
        <g id="pet-insurance" transform="translate(-281.000000, -549.000000)" fill="currentColor">
            <g id="pet-insurance" transform="translate(281.000000, 549.000000)">
                <path d="M43,24 L39,24 C31.909,24 26.941,21.754 25.481,19.446 C25.812,17.991 26,16.502 26,15 L26,7 C26,4.585 27.721,2.565 30,2.101 L30,9 C30,9.553 30.448,10 31,10 C31.552,10 32,9.553 32,9 L32,7.999 L37,7.999 C38.654,8 40,9.346 40,11 C40,11.553 40.448,12 41,11.999 L45.09,11.999 C45.514,14.507 47.493,16.486 50,16.91 L50,17 C50,20.859 46.86,24 43,24 L43,24 Z M35,50 C33.346,50 32,48.654 32,47 L32,37 C32,36.447 31.552,36 31,36 C30.448,36 30,36.447 30,37 L30,43.025 C29.161,42.391 28.13,42 27,42 L19,42 C18.448,42 18,42.447 18,43 C18,43.553 18.448,44 19,43.999 L27,43.999 C28.654,44 30,45.346 30,47 L30,50 L9,50 C5.14,50 2,46.411 2,42 C2,37.977 4.612,34.638 8,34.081 L8,39 C8,39.404 8.244,39.77 8.617,39.924 C8.992,40.079 9.42,39.993 9.707,39.707 L20.051,29.364 C21.212,28.203 22.2,26.893 23.041,25.496 C26.495,28.223 31.826,29.826 38,29.983 L38,50 L35,50 Z M38,25.979 L38,27.983 C32.098,27.828 27.084,26.296 24.002,23.704 C24.306,23.063 24.576,22.41 24.812,21.741 C27.34,24.172 32.313,25.807 38,25.979 L38,25.979 Z M50,13 L50,14.858 C48.602,14.494 47.506,13.399 47.143,11.999 L49,11.999 C49.552,12 50,12.448 50,13 L50,13 Z M49,10 L41.899,10 C41.436,7.721 39.415,6 37,6 L32,6 L32,1 C32,0.447 31.552,0 31,0 C27.14,0 24,3.141 24,7 L24,15 C24,19.82 22.045,24.541 18.637,27.95 L10,36.586 L10,33 C10,32.447 9.552,32 9,32 C4.038,32 0,36.486 0,42 C0,47.514 4.038,52 9,52 L31,52 C31.552,52 32,51.553 32,51 L32,50.975 C32.839,51.609 33.87,52 35,52 L39,52 C39.552,52 40,51.553 40,51 L40,25.999 L43,25.999 C47.962,26 52,21.963 52,17 L52,13 C52,11.346 50.654,10 49,10 L49,10 Z"></path>
            </g>
        </g>
    </g>
</svg>