<?xml version="1.0" encoding="UTF-8" standalone="no"?>
<svg width="59px" height="50px" viewBox="0 0 59 50" version="1.1" xmlns="http://www.w3.org/2000/svg" xmlns:xlink="http://www.w3.org/1999/xlink">
    <!-- Generator: Sketch 43.2 (39069) - http://www.bohemiancoding.com/sketch -->
    <title>Prescription Drug Cards</title>
    <desc>Created with Sketch.</desc>
    <defs></defs>
    <g id="prescription-drug-cards" stroke="none" stroke-width="1" fill="none" fill-rule="evenodd">
        <g id="prescription-drug-cards" transform="translate(-668.000000, -852.000000)">
            <g id="prescription-drug-cards" transform="translate(669.000000, 853.000000)">
                <g id="Page-1" transform="translate(19.000000, 30.000000)"></g>
                <path d="M43.7958,44.7268 C43.7958,46.5358 42.3488,47.9998 40.5648,47.9998 L3.9498,47.9998 C2.1658,47.9998 0.7188,46.5358 0.7188,44.7268 L0.7188,20.7268 C0.7188,18.9198 2.1658,17.4548 3.9498,17.4548 L40.5648,17.4548 C42.3488,17.4548 43.7958,18.9198 43.7958,20.7268 L43.7958,44.7268 Z" id="Stroke-24" stroke="currentColor" stroke-width="2" stroke-linejoin="round"></path>
                <path d="M43.7958,41.4085 L44.2788,41.5865 C45.9558,42.2045 47.8098,41.3305 48.4198,39.6315 L56.5238,17.0785 C57.1338,15.3795 56.2688,13.5025 54.5918,12.8835 L20.1848,0.1985 C18.5088,-0.4205 16.6548,0.4555 16.0438,2.1545 L10.5458,17.4545" id="Stroke-25" stroke="currentColor" stroke-width="2" stroke-linejoin="round"></path>
                <path d="M14.7187,30.4622 L20.1037,30.4622 C21.8877,30.4622 23.3347,29.0152 23.3347,27.2312 C23.3347,25.4462 21.8877,24.0002 20.1037,24.0002 L14.7187,24.0002 L14.7187,36.9232" id="Stroke-26" stroke="currentColor" stroke-width="2" stroke-linecap="round" stroke-linejoin="round"></path>
                <path d="M29.7958,41.2307 L19.0268,30.4617" id="Stroke-27" stroke="currentColor" stroke-width="2" stroke-linecap="round" stroke-linejoin="round"></path>
                <path d="M19.0268,41.2307 L29.7958,30.4617" id="Stroke-28" stroke="currentColor" stroke-width="2" stroke-linecap="round" stroke-linejoin="round"></path>
            </g>
        </g>
    </g>
</svg>