<?xml version="1.0" encoding="UTF-8" standalone="no"?>
<svg width="52px" height="52px" viewBox="0 0 52 52" version="1.1" xmlns="http://www.w3.org/2000/svg" xmlns:xlink="http://www.w3.org/1999/xlink">
    <!-- Generator: Sketch 43.2 (39069) - http://www.bohemiancoding.com/sketch -->
    <title>Qualified Health Plan</title>
    <desc>Created with Sketch.</desc>
    <defs>
        <polygon id="path-1" points="51.9995 52 0 52 0 0 51.9995 0 51.9995 52"></polygon>
    </defs>
    <g id="qualified-health-plan" stroke="none" stroke-width="1" fill="none" fill-rule="evenodd">
        <g id="qualified-health-plan" transform="translate(-1061.000000, -698.000000)">
            <g id="qualified-health-plan" transform="translate(1061.000000, 698.000000)">
                <mask id="mask-2" fill="white">
                    <use xlink:href="#path-1"></use>
                </mask>
                <g id="Clip-2"></g>
                <path d="M12.0195,-10693.9121 L12.0195,5689.0879 L12.0195,-10693.9121 Z M37.9995,29.9999 C37.9995,32.2059 36.2065,33.9999 33.9995,33.9999 C31.7935,33.9999 29.9995,32.2059 29.9995,29.9999 C29.9995,27.7939 31.7935,25.9999 33.9995,25.9999 C36.2065,25.9999 37.9995,27.7939 37.9995,29.9999 L37.9995,29.9999 Z M35.9995,39.1319 L34.5545,38.1679 C34.2185,37.9429 33.7815,37.9429 33.4455,38.1679 L31.9995,39.1319 L31.9995,35.6509 C32.6265,35.8719 33.2975,35.9999 33.9995,35.9999 C34.7025,35.9999 35.3735,35.8719 35.9995,35.6509 L35.9995,39.1319 Z M27.9995,29.9999 C27.9995,31.7719 28.7755,33.3599 29.9995,34.4599 L29.9995,40.9999 C29.9995,41.3689 30.2035,41.7079 30.5285,41.8819 C30.8535,42.0559 31.2485,42.0359 31.5545,41.8319 L33.9995,40.2019 L36.4455,41.8319 C36.6125,41.9429 36.8055,41.9999 36.9995,41.9999 C37.1625,41.9999 37.3245,41.9609 37.4715,41.8819 C37.7965,41.7079 37.9995,41.3689 37.9995,40.9999 L37.9995,34.4599 C39.2245,33.3599 39.9995,31.7719 39.9995,29.9999 C39.9995,26.6919 37.3085,23.9999 33.9995,23.9999 C30.6915,23.9999 27.9995,26.6919 27.9995,29.9999 L27.9995,29.9999 Z M12.8745,25.9999 L25.1245,25.9999 C25.6085,25.9999 25.9995,25.5519 25.9995,24.9999 C25.9995,24.4479 25.6085,23.9999 25.1245,23.9999 L12.8745,23.9999 C12.3915,23.9999 11.9995,24.4479 11.9995,24.9999 C11.9995,25.5519 12.3915,25.9999 12.8745,25.9999 L12.8745,25.9999 Z M12.9995,20.9999 L34.9995,20.9999 C35.5525,20.9999 35.9995,20.5519 35.9995,19.9999 C35.9995,19.4479 35.5525,18.9999 34.9995,18.9999 L12.9995,18.9999 C12.4475,18.9999 11.9995,19.4479 11.9995,19.9999 C11.9995,20.5519 12.4475,20.9999 12.9995,20.9999 L12.9995,20.9999 Z M12.9995,15.9999 L34.9995,15.9999 C35.5525,15.9999 35.9995,15.5519 35.9995,14.9999 C35.9995,14.4479 35.5525,13.9999 34.9995,13.9999 L12.9995,13.9999 C12.4475,13.9999 11.9995,14.4479 11.9995,14.9999 C11.9995,15.5519 12.4475,15.9999 12.9995,15.9999 L12.9995,15.9999 Z M49.9995,5.9999 L43.9995,5.9999 L43.9995,4.9999 C43.9995,3.3459 45.3455,1.9999 46.9995,1.9999 C48.6545,1.9999 49.9995,3.3459 49.9995,4.9999 L49.9995,5.9999 Z M41.9995,4.9999 L41.9995,46.9999 C41.9995,48.6539 40.6545,49.9999 38.9995,49.9999 C37.3455,49.9999 35.9995,48.6539 35.9995,46.9999 L35.9995,44.9999 C35.9995,44.4469 35.5525,43.9999 34.9995,43.9999 L5.9995,43.9999 L5.9995,4.9999 C5.9995,3.3459 7.3455,1.9999 8.9995,1.9989 L43.0255,1.9989 C42.3905,2.8389 41.9995,3.8699 41.9995,4.9999 L41.9995,4.9999 Z M4.9995,49.9999 C3.3455,49.9999 1.9995,48.6539 1.9995,46.9999 L1.9995,45.9999 L33.9995,45.9999 L33.9995,46.9999 C33.9995,48.1249 34.3735,49.1639 35.0015,49.9999 L4.9995,49.9999 Z M46.9995,-9.99999993e-05 L8.9995,-9.99999993e-05 C6.2435,-9.99999993e-05 3.9995,2.2429 3.9995,4.9999 L3.9995,43.9999 L0.9995,43.9999 C0.4475,43.9999 -0.0005,44.4469 -0.0005,44.9999 L-0.0005,46.9999 C-0.0005,49.7569 2.2435,51.9999 4.9995,51.9999 L38.9995,51.9999 C41.7565,51.9999 43.9995,49.7569 43.9995,46.9999 L43.9995,7.9999 L50.9995,7.9999 C51.5525,7.9999 51.9995,7.5519 51.9995,6.9999 L51.9995,4.9999 C51.9995,2.2429 49.7565,-9.99999993e-05 46.9995,-9.99999993e-05 L46.9995,-9.99999993e-05 Z" id="Fill-1" fill="currentColor" mask="url(#mask-2)"></path>
            </g>
        </g>
    </g>
</svg>