<?xml version="1.0" encoding="UTF-8" standalone="no"?>
<svg width="40px" height="52px" viewBox="0 0 40 52" version="1.1" xmlns="http://www.w3.org/2000/svg" xmlns:xlink="http://www.w3.org/1999/xlink">
    <!-- Generator: Sketch 43.2 (39069) - http://www.bohemiancoding.com/sketch -->
    <title>Short-Term Insurance</title>
    <desc>Created with Sketch.</desc>
    <defs></defs>
    <g id="short-term-insurance" stroke="none" stroke-width="1" fill="none" fill-rule="evenodd">
        <g id="short-term-insurance" transform="translate(-872.000000, -398.000000)" fill="currentColor">
            <g id="short-term-insurance" transform="translate(872.000000, 398.000000)">
                <path d="M20,34 C18.897,34 18,33.103 18,32 C18,30.897 18.897,30 20,30 C21.103,30 22,30.897 22,32 C22,33.103 21.103,34 20,34 L20,34 Z M30.707,22.708 C31.098,22.317 31.098,21.684 30.707,21.293 C30.316,20.903 29.684,20.903 29.293,21.293 L22.019,28.566 C21.424,28.216 20.739,28 20,28 C17.794,28 16,29.794 16,32 C16,34.206 17.794,36 20,36 C22.206,36 24,34.206 24,32 C24,31.261 23.785,30.576 23.433,29.98 L30.707,22.708 Z M10.454,19.833 C10.063,19.443 9.431,19.443 9.04,19.833 C8.649,20.224 8.649,20.857 9.04,21.248 L10.454,22.662 C10.649,22.857 10.905,22.955 11.161,22.955 C11.417,22.955 11.673,22.857 11.868,22.662 C12.259,22.271 12.259,21.638 11.868,21.248 L10.454,19.833 Z M9.747,39.632 L8.333,41.046 C7.942,41.437 7.942,42.069 8.333,42.46 C8.528,42.655 8.784,42.753 9.04,42.753 C9.296,42.753 9.552,42.655 9.747,42.46 L11.161,41.046 C11.552,40.655 11.552,40.022 11.161,39.632 C10.771,39.241 10.138,39.241 9.747,39.632 L9.747,39.632 Z M7,30 L5,30 C4.448,30 4,30.447 4,31 C4,31.553 4.448,32 5,32 L7,32 C7.552,32 8,31.553 8,31 C8,30.447 7.552,30 7,30 L7,30 Z M29.546,40.339 C29.155,39.948 28.522,39.948 28.132,40.339 C27.741,40.729 27.741,41.362 28.132,41.753 L29.546,43.167 C29.741,43.362 29.997,43.46 30.253,43.46 C30.509,43.46 30.765,43.362 30.96,43.167 C31.351,42.776 31.351,42.144 30.96,41.753 L29.546,40.339 Z M35,31 L33,31 C32.448,31 32,31.447 32,32 C32,32.553 32.448,33 33,33 L35,33 C35.552,33 36,32.553 36,32 C36,31.447 35.552,31 35,31 L35,31 Z M20,44 C19.448,44 19,44.447 19,45 L19,47 C19,47.553 19.448,48 20,48 C20.552,48 21,47.553 21,47 L21,45 C21,44.447 20.552,44 20,44 L20,44 Z M20,20 C20.552,20 21,19.553 21,19 L21,17 C21,16.448 20.552,16 20,16 C19.448,16 19,16.448 19,17 L19,19 C19,19.553 19.448,20 20,20 L20,20 Z M20,50 C10.074,50 2,41.925 2,32 C2,22.076 10.074,14 20,14 C29.926,14 38,22.076 38,32 C38,41.925 29.926,50 20,50 L20,50 Z M3.122,16.536 C2.731,16.146 2.731,15.511 3.121,15.122 C3.499,14.745 4.158,14.745 4.536,15.122 L6.605,17.191 C6.11,17.639 5.64,18.11 5.191,18.605 L3.122,16.536 Z M21,8 L21,12.051 C20.666,12.035 20.337,12 20,12 C19.662,12 19.334,12.035 19,12.051 L19,8 L21,8 Z M16,6 C14.897,6 14,5.103 14,4 C14,2.898 14.897,2 16,2 L24,2 C25.103,2 26,2.898 26,4 C26,5.103 25.103,6 24,6 L16,6 Z M35.465,15.122 C35.843,14.743 36.501,14.745 36.879,15.122 C37.269,15.511 37.269,16.146 36.879,16.536 L34.81,18.606 C34.36,18.111 33.89,17.639 33.395,17.191 L35.465,15.122 Z M36.082,20.161 L38.293,17.95 C38.86,17.383 39.172,16.629 39.172,15.829 C39.172,15.028 38.86,14.274 38.293,13.708 C37.159,12.575 35.183,12.575 34.051,13.708 L31.84,15.918 C29.285,14.033 26.274,12.747 23,12.25 L23,8 L24,8 C26.206,8 28,6.207 28,4 C28,1.794 26.206,0 24,0 L16,0 C13.794,0 12,1.794 12,4 C12,6.207 13.794,8 16,8 L17,8 L17,12.25 C13.726,12.747 10.715,14.033 8.161,15.918 L5.95,13.708 C4.78,12.538 2.877,12.537 1.706,13.708 C0.539,14.877 0.539,16.78 1.707,17.95 L3.919,20.161 C1.468,23.48 0,27.567 0,32 C0,43.028 8.973,52 20,52 C31.027,52 40,43.028 40,32 C40,27.567 38.532,23.48 36.082,20.161 L36.082,20.161 Z" id="Short-term-Insurance"></path>
            </g>
        </g>
    </g>
</svg>