<?xml version="1.0" encoding="UTF-8" standalone="no"?>
<svg width="52px" height="48px" viewBox="0 0 52 48" version="1.1" xmlns="http://www.w3.org/2000/svg" xmlns:xlink="http://www.w3.org/1999/xlink">
    <!-- Generator: Sketch 43.2 (39069) - http://www.bohemiancoding.com/sketch -->
    <title>Small Business Insurance</title>
    <desc>Created with Sketch.</desc>
    <defs></defs>
    <g id="small-business-insurance" stroke="none" stroke-width="1" fill="none" fill-rule="evenodd" stroke-linejoin="round">
        <g id="small-business-insurance" transform="translate(-281.000000, -248.000000)" stroke="currentColor" stroke-width="2">
            <g id="small-business-insurance" transform="translate(282.000000, 249.000000)">
                <path d="M13.6001,8 L10.0001,18 C10.0001,20.76 7.7601,23 5.0001,23 C2.2401,23 0.0001,20.76 0.0001,18 L6.0001,8 L13.6001,8 Z" id="Stroke-1"></path>
                <path d="M21.1997,8 L20.0007,18 C20.0007,20.76 17.7607,23 15.0007,23 C12.2397,23 10.0007,20.76 10.0007,18 L13.5997,8 L21.1997,8 Z" id="Stroke-3"></path>
                <path d="M30.0005,18 C30.0005,20.76 27.7605,23 25.0005,23 C22.2395,23 20.0005,20.76 20.0005,18 L21.1995,8 L28.8005,8 L30.0005,18 Z" id="Stroke-5"></path>
                <path d="M40.0005,18 C40.0005,20.76 37.7605,23 35.0005,23 C32.2395,23 30.0005,20.76 30.0005,18 L28.8005,8 L36.3995,8 L40.0005,18 Z" id="Stroke-7"></path>
                <path d="M50.0005,18 C50.0005,20.76 47.7605,23 45.0005,23 C42.2395,23 40.0005,20.76 40.0005,18 L36.3995,8 L44.0005,8 L50.0005,18 Z" id="Stroke-9"></path>
                <polyline id="Stroke-11" points="6.0005 8 6.0005 0 44.0005 0 44.0005 8"></polyline>
                <path d="M44.0005,46 L44.0005,22.899" id="Stroke-13"></path>
                <path d="M6.0005,22.8994 L6.0005,46.0004" id="Stroke-15"></path>
                <path d="M24.0005,32 L21.0005,35" id="Stroke-17" stroke-linecap="round"></path>
                <path d="M22.0005,27 L14.0005,35" id="Stroke-19" stroke-linecap="round"></path>
                <path d="M30.0005,46 L30.0005,21" id="Stroke-21"></path>
                <path d="M34.0005,31 L34.0005,35" id="Stroke-23" stroke-linecap="round"></path>
                <path d="M6.0005,40 L30.0005,40" id="Stroke-25"></path>
                <path d="M2.0005,46 L48.0005,46" id="Stroke-27" stroke-linecap="round"></path>
            </g>
        </g>
    </g>
</svg>