<?xml version="1.0" encoding="UTF-8" standalone="no"?>
<svg width="60px" height="40px" viewBox="0 0 60 40" version="1.1" xmlns="http://www.w3.org/2000/svg" xmlns:xlink="http://www.w3.org/1999/xlink">
    <!-- Generator: Sketch 43.2 (39069) - http://www.bohemiancoding.com/sketch -->
    <title>Student Health Insurance</title>
    <desc>Created with Sketch.</desc>
    <defs>
        <polygon id="path-1" points="60 40.0003 60 5e-05 0.0003 5e-05 0.0003 40.0003"></polygon>
    </defs>
    <g id="student-health-insurance" stroke="none" stroke-width="1" fill="none" fill-rule="evenodd">
        <g id="student-health-insurance" transform="translate(-668.000000, -555.000000)">
            <g id="student-health-insurance" transform="translate(668.000000, 555.000000)">
                <mask id="mask-2" fill="white">
                    <use xlink:href="#path-1"></use>
                </mask>
                <g id="Clip-2"></g>
                <path d="M46.9473,15.5023 L30.2593,11.0343 C29.7253,10.8913 29.1763,11.2083 29.0343,11.7413 C28.8913,12.2743 29.2083,12.8233 29.7413,12.9663 L43.7483,16.7163 L30.0003,21.9313 L3.8193,12.0003 L30.0003,2.0693 L56.1803,12.0003 L46.9473,15.5023 Z M46.0003,22.1853 C44.8393,22.5993 44.0003,23.6983 44.0003,25.0003 C44.0003,26.1623 44.6713,27.1603 45.6383,27.6583 C45.1833,28.8983 44.5263,31.1783 44.1993,34.6253 C41.3823,36.6833 35.8883,38.0003 30.0003,38.0003 C20.5713,38.0003 14.0003,34.8383 14.0003,32.0003 L14.0003,18.0003 L29.6453,23.9353 C29.7603,23.9793 29.8803,24.0003 30.0003,24.0003 C30.1203,24.0003 30.2403,23.9793 30.3543,23.9353 L46.0003,18.0003 L46.0003,22.1853 Z M46.0103,38.0003 C46.0853,34.3993 46.5513,31.7693 47.0003,30.0383 C47.4493,31.7703 47.9153,34.3993 47.9903,38.0003 L46.0103,38.0003 Z M47.0003,24.0003 C47.5513,24.0003 48.0003,24.4483 48.0003,25.0003 C48.0003,25.5523 47.5513,26.0003 47.0003,26.0003 C46.4483,26.0003 46.0003,25.5523 46.0003,25.0003 C46.0003,24.4483 46.4483,24.0003 47.0003,24.0003 L47.0003,24.0003 Z M59.3543,11.0653 L30.3543,0.0653 C30.1263,-0.0217 29.8743,-0.0217 29.6453,0.0653 L0.6453,11.0653 C0.2573,11.2123 0.0003,11.5853 0.0003,12.0003 C0.0003,12.4153 0.2573,12.7883 0.6453,12.9353 L12.0003,17.2413 L12.0003,32.0003 C12.0003,36.5613 19.7383,40.0003 30.0003,40.0003 C35.5643,40.0003 40.7013,38.9063 44.0413,37.0823 C44.0163,37.6963 44.0003,38.3283 44.0003,39.0003 C44.0003,39.5533 44.4473,40.0003 45.0003,40.0003 L49.0003,40.0003 C49.5523,40.0003 50.0003,39.5533 50.0003,39.0003 C50.0003,33.0383 48.9873,29.3633 48.3613,27.6583 C49.3293,27.1603 50.0003,26.1623 50.0003,25.0003 C50.0003,23.6983 49.1613,22.5993 48.0003,22.1853 L48.0003,17.2413 L59.3543,12.9353 C59.7433,12.7883 60.0003,12.4153 60.0003,12.0003 C60.0003,11.5853 59.7433,11.2123 59.3543,11.0653 L59.3543,11.0653 Z" id="Fill-1" fill="currentColor" mask="url(#mask-2)"></path>
            </g>
        </g>
    </g>
</svg>