<?xml version="1.0" encoding="UTF-8" standalone="no"?>
<svg width="58px" height="50px" viewBox="0 0 58 50" version="1.1" xmlns="http://www.w3.org/2000/svg" xmlns:xlink="http://www.w3.org/1999/xlink">
    <!-- Generator: Sketch 43.2 (39069) - http://www.bohemiancoding.com/sketch -->
    <title>Telemedicine Insurance</title>
    <desc>Created with Sketch.</desc>
    <defs></defs>
    <g id="telemedicine-insurance" stroke="none" stroke-width="1" fill="none" fill-rule="evenodd" stroke-linejoin="round">
        <g id="telemedicine-insurance" transform="translate(-83.000000, -694.000000)" stroke="currentColor" stroke-width="2">
            <g id="telemedicine-insurance" transform="translate(84.000000, 695.000000)">
                <path d="M0.0001,42.2066 L0.0001,44.1386 C0.0001,46.2706 1.7291,47.9996 3.8621,47.9996 L52.1381,47.9996 C54.2711,47.9996 56.0001,46.2706 56.0001,44.1386 L56.0001,42.2066 L0.0001,42.2066 Z" id="Stroke-1"></path>
                <path d="M27.795,23.2418 L35.931,23.2418 L35.931,32.0348 L43.724,23.2418 L53.104,23.2418 C54.702,23.2418 56,21.9448 56,20.3448 L56,2.8958 C56,1.2968 54.702,-0.0002 53.104,-0.0002 L25,-0.0002 C23.4,-0.0002 22.104,1.2968 22.104,2.8958 L22.104,18.8908" id="Stroke-3" stroke-linecap="round"></path>
                <path d="M50.2071,42.2066 L50.2071,23.2416" id="Stroke-5"></path>
                <path d="M23.1036,13.2418 L7.7236,13.2418 C6.6576,13.2418 5.7926,14.1058 5.7926,15.1728 L5.7926,42.2068" id="Stroke-7"></path>
                <path d="M10.7188,42.2066 L10.7188,36.6216 C10.7188,35.4926 11.5568,34.4846 12.8188,34.1066 L15.5198,33.2666 L21.4218,37.2766 C21.9058,37.6056 22.5338,37.6056 23.0168,37.2766 L28.9188,33.2666 L31.6358,34.1126 C32.8818,34.4846 33.7188,35.4926 33.7188,36.6216 L33.7188,42.2066" id="Stroke-9" stroke-linecap="round"></path>
                <path d="M27.9688,24.6412 C27.9688,27.8172 25.3948,30.3912 22.2188,30.3912 C19.0438,30.3912 16.4688,27.8172 16.4688,24.6412 C16.4688,21.4652 19.0438,18.8912 22.2188,18.8912 C25.3948,18.8912 27.9688,21.4652 27.9688,24.6412 Z" id="Stroke-11" stroke-linecap="round"></path>
                <polygon id="Stroke-13" points="46.1095 9.7818 41.1095 9.7818 41.1095 4.7818 37.1095 4.7818 37.1095 9.7818 32.1095 9.7818 32.1095 13.7818 37.1095 13.7818 37.1095 18.7818 41.1095 18.7818 41.1095 13.7818 46.1095 13.7818"></polygon>
            </g>
        </g>
    </g>
</svg>