<?xml version="1.0" encoding="UTF-8" standalone="no"?>
<svg width="52px" height="52px" viewBox="0 0 52 52" version="1.1" xmlns="http://www.w3.org/2000/svg" xmlns:xlink="http://www.w3.org/1999/xlink">
    <!-- Generator: Sketch 43.2 (39069) - http://www.bohemiancoding.com/sketch -->
    <title>Travel Insurance</title>
    <desc>Created with Sketch.</desc>
    <defs></defs>
    <g id="travel-insurance" stroke="none" stroke-width="1" fill="none" fill-rule="evenodd">
        <g id="travel-insurance" transform="translate(-476.000000, -549.000000)" fill="currentColor">
            <g id="travel-insurance" transform="translate(476.000000, 549.000000)">
                <path d="M30.498,26.4699 C30.559,26.4699 30.619,26.4759 30.68,26.4869 C31.004,26.5459 31.277,26.7619 31.411,27.0629 L41.32,49.2639 L43.918,46.6679 L38.511,18.6639 C38.447,18.3379 38.551,18.0019 38.785,17.7679 L47.796,8.7569 C50.177,6.3759 50.267,2.7989 49.753,2.2449 C49.685,2.1829 49.304,1.9999 48.483,1.9999 C47.083,1.9999 44.87,2.5769 43.243,4.2049 L34.233,13.2149 C33.998,13.4499 33.658,13.5549 33.337,13.4899 L5.332,8.0829 L2.735,10.6799 L24.938,20.5899 C25.239,20.7239 25.455,20.9969 25.515,21.3219 C25.574,21.6449 25.471,21.9779 25.238,22.2099 L13.741,33.7069 C13.554,33.8939 13.3,33.9999 13.034,33.9989 L5.414,33.9989 L2.779,36.6349 L11.371,40.0709 C11.626,40.1729 11.827,40.3749 11.929,40.6289 L15.365,49.2199 L18,46.5859 L18,38.9669 C18,38.7009 18.105,38.4469 18.293,38.2599 L29.791,26.7629 C29.98,26.5739 30.235,26.4699 30.498,26.4699 M15,51.9999 C14.934,51.9999 14.866,51.9929 14.799,51.9789 C14.47,51.9119 14.196,51.6829 14.071,51.3709 L10.23,41.7689 L0.629,37.9279 C0.316,37.8029 0.088,37.5299 0.02,37.2009 C-0.047,36.8719 0.056,36.5299 0.293,36.2929 L4.293,32.2929 C4.48,32.1049 4.734,31.9999 5,31.9999 L12.62,31.9999 L22.796,21.8239 L0.593,11.9129 C0.292,11.7799 0.076,11.5059 0.017,11.1819 C-0.043,10.8589 0.061,10.5259 0.293,10.2929 L4.293,6.2929 C4.528,6.0579 4.867,5.9529 5.189,6.0189 L33.194,11.4259 L41.829,2.7909 C43.886,0.7339 46.615,-0.0001 48.483,-0.0001 C49.329,-0.0001 50.499,0.1449 51.185,0.8319 C52.609,2.2559 52.291,7.1079 49.227,10.1709 L40.574,18.8069 L45.981,46.8099 C46.045,47.1369 45.941,47.4719 45.707,47.7069 L41.707,51.7069 C41.475,51.9399 41.143,52.0409 40.818,51.9829 C40.494,51.9239 40.221,51.7079 40.087,51.4069 L30.178,29.2049 L20,39.3809 L20,46.9999 C20,47.2649 19.894,47.5189 19.707,47.7069 L15.707,51.7069 C15.518,51.8959 15.263,51.9999 15,51.9999" id="Fill-1"></path>
            </g>
        </g>
    </g>
</svg>